<?xml version="1.0" encoding="UTF-8"?>
<svg id="Layer_2" data-name="Layer 2" xmlns="http://www.w3.org/2000/svg" viewBox="0 0 53.15 186.27">
  <defs>
    <style>
      .cls-1 {
        fill: none;
        stroke: #45589c;
        stroke-miterlimit: 10;
      }
    </style>
  </defs>
  <g id="Layer_1-2" data-name="Layer 1">
    <g>
      <g>
        <path class="cls-1" d="M48.12,135.44c-.24-.49-.37-.89-.45-1.13-.03-.08-.45-1.44-.44-2.87.02-3.07,1.98-5.56,2.4-6.08-4.76-1.84-12.4-4.06-21.75-3.53-10.74.61-24.45,4.9-24.44,9.4.01,4.54,14.01,8.65,24.44,9.4,9.35.67,17.05-1.26,21.94-2.93-.52-.47-1.2-1.2-1.71-2.25Z"/>
        <path class="cls-1" d="M50.22,125.57c-1.34,0-2.43,2.68-2.43,5.98s1.09,5.98,2.43,5.98,2.43-2.68,2.43-5.98-1.09-5.98-2.43-5.98Z"/>
      </g>
      <g>
        <path class="cls-1" d="M38.86,46.2c.48,0,.91.19,1.23.5-.38-.54-.98-.92-1.69-.92-.63,0-1.19.3-1.57.74.27-.18.57-.3.92-.31h1.12Z"/>
        <path class="cls-1" d="M44.91,51.79v-.07c0-.96-.8-1.74-1.77-1.73h-.23c1.04.03,1.85.8,2,1.81Z"/>
        <path class="cls-1" d="M12.14.51h-.3c-.96,0-1.74.8-1.74,1.76v.3c.01-1.13.91-2.03,2.04-2.07Z"/>
        <path class="cls-1" d="M35.85,43.16v-.06c0-.96-.8-1.74-1.76-1.74h-.14c.99.07,1.76.82,1.9,1.79Z"/>
        <path class="cls-1" d="M31.5,38.13c-.26-.64-.89-1.1-1.63-1.09h-.01c.72.07,1.31.49,1.64,1.09Z"/>
        <path class="cls-1" d="M18.76,25.58v-.12c0-.96-.8-1.74-1.76-1.74h-.05c.97.12,1.71.88,1.81,1.85Z"/>
        <path class="cls-1" d="M16.42,23.73h-.13c-.9,0-1.61.7-1.7,1.57v.42c.03-1.04.82-1.86,1.83-2Z"/>
        <path class="cls-1" d="M24.5,32.98c-.51.17-.91.56-1.08,1.07.22-.48.6-.86,1.08-1.07Z"/>
        <path class="cls-1" d="M24.74,32.93c.1-.03.21-.05.32-.06h-.01c-.11,0-.2.04-.3.06Z"/>
        <path class="cls-1" d="M42.86,49.98s-.03.01-.05.01h.1s-.03-.01-.05-.01Z"/>
        <path class="cls-1" d="M44.96,52.08c0-.1-.04-.19-.06-.29v.55c.02-.09.06-.17.06-.26Z"/>
        <path class="cls-1" d="M35.91,43.44c0-.1-.04-.19-.06-.28v.54c.02-.09.06-.17.06-.26Z"/>
        <path class="cls-1" d="M33.81,41.34c-.06,0-.1.03-.16.03h.3c-.05,0-.09-.03-.15-.03Z"/>
        <path class="cls-1" d="M29.67,37c-.08,0-.14.04-.21.04h.41c-.07,0-.13-.04-.2-.04Z"/>
        <path class="cls-1" d="M31.65,39.72c.06-.2.13-.4.13-.62,0-.36-.11-.68-.27-.97.08.2.13.42.14.64v.95Z"/>
        <path class="cls-1" d="M23.42,34.05c-.12.27-.2.55-.2.86,0,.16.06.29.09.44v-.72c0-.2.04-.4.11-.58Z"/>
        <path class="cls-1" d="M25.06,32.86h.52c-.09-.01-.16-.05-.25-.05-.1,0-.18.04-.27.05Z"/>
        <path class="cls-1" d="M23.24,30.77c0-.13-.05-.24-.07-.36v.7c.02-.11.07-.22.07-.34Z"/>
        <path class="cls-1" d="M18.8,25.77c0-.07-.03-.13-.04-.2v.38c0-.06.04-.12.04-.19Z"/>
        <path class="cls-1" d="M16.69,23.67c-.1,0-.18.04-.27.05h.52c-.09-.01-.16-.05-.25-.05Z"/>
        <path class="cls-1" d="M14.59,25.77s.01.03.01.05v-.1s-.01.03-.01.05Z"/>
        <path class="cls-1" d="M12.2.5s-.04.01-.07.01h.13s-.04-.01-.06-.01Z"/>
        <path class="cls-1" d="M10.1,2.6s0,.01,0,.02v-.04s0,.01,0,.02Z"/>
        <path class="cls-1" d="M47.98,135.58c-.24-.49-.37-.89-.44-1.13-.03-.08-.45-1.44-.44-2.87.02-3.07,1.98-5.56,2.4-6.08-1.15-.45-2.49-.91-3.96-1.36l-.63-71.79c-.14,1.03-.98,1.84-2.05,1.84-1.16,0-2.1-.94-2.1-2.1s.92-2.06,2.05-2.09h-.36c-.96.01-1.74.81-1.73,1.77l.63,71.3c-.06-.01-.11-.03-.17-.04l-.54-75.08c0-.49-.21-.93-.54-1.24.24.34.41.73.41,1.18,0,1.16-.94,2.1-2.1,2.1s-2.1-.94-2.1-2.1c0-.53.21-.99.53-1.36-.49.32-.82.84-.82,1.46l.54,74.29s-.07,0-.11-.01l-.57-78.54c-.13,1.03-.98,1.84-2.05,1.84-1.16,0-2.1-.94-2.1-2.1s.86-1.99,1.95-2.07h-.26c-.94,0-1.7.77-1.72,1.7l.57,78.86s0,0-.01,0l-.57-78.8s.01-.04.01-.06l-.02-3.35c-.27.85-1.04,1.48-1.98,1.48-1.16,0-2.1-.94-2.1-2.1,0-1.09.83-1.95,1.89-2.06h-.27c-.81,0-1.46.58-1.65,1.32l.61,83.59s-.06,0-.09,0l-.6-83.15c0-.16.05-.3.09-.44l-.03-3.77c0-.96-.8-1.74-1.76-1.74h-.16c1.04.13,1.85.98,1.85,2.05,0,1.16-.94,2.1-2.1,2.1-1.01,0-1.81-.72-2.02-1.67l.63,86.97s-.07,0-.11.01l-.66-91.23c-.17.99-.99,1.77-2.04,1.77-1.16,0-2.1-.94-2.1-2.1s.94-2.1,2.1-2.1c1.03,0,1.85.76,2.03,1.74v-.11c0-.96-.8-1.74-1.76-1.74h-.7c-.96.01-1.74.81-1.74,1.77l.67,92.69c-.06.01-.12.02-.18.03l-.7-97.09c-.1,1.07-.97,1.92-2.07,1.92s-2.06-.91-2.09-2.05l.71,98.19s-.03,0-.04.01l-.71-98.54c0-.07.03-.12.04-.19l-.17-23.05c0-.96-.8-1.74-1.76-1.74h-.4c1.13.04,2.04.95,2.04,2.09s-.94,2.1-2.1,2.1-2.09-.93-2.1-2.08l.89,122.78c-1.17.44-2.25.91-3.21,1.4v-.06s0,.04,0,.06c-2.71,1.39-4.45,2.95-4.45,4.55,0,2.18,3.25,4.25,7.76,5.91l.34,46.64c0,.96.8,1.74,1.76,1.74h.83c.95-.01,1.71-.78,1.73-1.73,0-.05-.03-.09-.03-.15l-.33-45.14s.03,0,.04.01l.33,45.24s0,.03,0,.04c.09.89.82,1.6,1.73,1.59h.7c.96-.01,1.74-.81,1.74-1.77l-.32-44.13c.06.01.12.02.18.03l.32,44.26c0,.96.8,1.74,1.76,1.74h.7c.96-.01,1.74-.81,1.74-1.77l-.32-43.52s.07,0,.11.01l.32,43.61c0,.96.8,1.74,1.76,1.74h.7c.88-.01,1.58-.68,1.69-1.53,0-.07-.04-.13-.04-.2l-.31-43.2s.06,0,.09,0l.31,43.17c0,.08-.04.16-.05.24.11.86.83,1.54,1.72,1.53h.7c.94-.01,1.7-.77,1.72-1.7l-.31-43.14s0,0,.01,0l.31,43.08s-.01.04-.01.06v.02c0,.96.8,1.74,1.76,1.74h.7c.96-.01,1.74-.81,1.74-1.77l-.31-43.35s.07,0,.11,0l.31,43.32c0,.96.8,1.74,1.76,1.74h1.12c.96-.02,1.74-.81,1.74-1.77l-.32-43.92c.07-.01.13-.03.2-.04l.39,43.98c0,.96.8,1.74,1.77,1.73h.7c.96-.01,1.74-.81,1.73-1.77l-.4-44.87c1.49-.39,2.84-.81,4.02-1.21-.52-.47-1.2-1.2-1.71-2.25ZM43.35,116.02c.56,0,1.01.45,1.01,1.01s-.45,1.01-1.01,1.01-1.01-.45-1.01-1.01.45-1.01,1.01-1.01ZM38.88,116.05c.56,0,1.01.45,1.01,1.01s-.45,1.01-1.01,1.01-1.01-.45-1.01-1.01.45-1.01,1.01-1.01ZM34.39,116.12c.56,0,1.01.45,1.01,1.01s-.45,1.01-1.01,1.01-1.01-.45-1.01-1.01.45-1.01,1.01-1.01ZM21.69,116.18c.56,0,1.01.45,1.01,1.01s-.45,1.01-1.01,1.01-1.01-.45-1.01-1.01.45-1.01,1.01-1.01ZM17.33,116.25c.56,0,1.01.45,1.01,1.01s-.45,1.01-1.01,1.01-1.01-.45-1.01-1.01.45-1.01,1.01-1.01ZM13.03,116.33c.56,0,1.01.45,1.01,1.01s-.45,1.01-1.01,1.01-1.01-.45-1.01-1.01.45-1.01,1.01-1.01ZM25.91,116.1c.56,0,1.01.45,1.01,1.01s-.45,1.01-1.01,1.01-1.01-.45-1.01-1.01.45-1.01,1.01-1.01ZM30.15,116.12c.56,0,1.01.45,1.01,1.01s-.45,1.01-1.01,1.01-1.01-.45-1.01-1.01.45-1.01,1.01-1.01Z"/>
        <path class="cls-1" d="M50.09,125.71c-1.34,0-2.43,2.68-2.43,5.98s1.09,5.98,2.43,5.98,2.43-2.68,2.43-5.98-1.09-5.98-2.43-5.98Z"/>
        <path class="cls-1" d="M1.85,129.73c-.74,0-1.35.76-1.35,1.7s.6,1.7,1.35,1.7,1.35-.76,1.35-1.7-.6-1.7-1.35-1.7Z"/>
      </g>
    </g>
  </g>
</svg>