<?xml version="1.0" encoding="UTF-8"?>
<svg id="Layer_2" data-name="Layer 2" xmlns="http://www.w3.org/2000/svg" viewBox="0 0 34.87 22.16">
  <defs>
    <style>
      .cls-1 {
        stroke-width: 0px;
      }

      .cls-1, .cls-2, .cls-3 {
        fill: #8d2a37;
      }

      .cls-2 {
        stroke: #b8424c;
        stroke-width: .1px;
      }

      .cls-2, .cls-3, .cls-4 {
        stroke-miterlimit: 10;
      }

      .cls-3, .cls-4 {
        stroke: #8d2a37;
        stroke-width: .5px;
      }

      .cls-5 {
        opacity: .6;
      }

      .cls-4 {
        fill: #b8424c;
      }
    </style>
  </defs>
  <g id="Layer_1-2" data-name="Layer 1">
    <g>
      <rect class="cls-4" x=".28" y=".29" width="34.31" height="21.57" transform="translate(.03 -.04) rotate(.15)"/>
      <g>
        <ellipse class="cls-1" cx="22.26" cy="6.41" rx="2.9" ry="2.38" transform="translate(15.79 28.66) rotate(-89.85)"/>
        <rect class="cls-1" x="18.35" y="10.38" width="8.11" height="9.81" rx=".94" ry=".94" transform="translate(.04 -.06) rotate(.15)"/>
        <rect class="cls-1" x="21.55" y="7.83" width="1.4" height="3.01" transform="translate(.02 -.06) rotate(.15)"/>
      </g>
      <rect class="cls-1" x=".5" y="19.52" width="34.06" height="2.34" transform="translate(.05 -.04) rotate(.15)"/>
      <g class="cls-5">
        <ellipse class="cls-3" cx="29.87" cy="9.38" rx="2.38" ry="2.14" transform="translate(20.41 39.24) rotate(-89.85)"/>
        <g>
          <polygon class="cls-2" points="29.72 7.43 28.93 9.29 29.68 11.21 30.59 9.32 29.72 7.43"/>
          <polygon class="cls-2" points="29.71 8.56 29.7 8.58 29.45 9.31 29.72 10.16 30.05 9.3 29.71 8.56"/>
        </g>
      </g>
      <g>
        <path class="cls-1" d="M2.53,14.69l-1.13.83v-1.39s1.37-1.01,1.37-1.01h1.17s.02,5.57.02,5.57h-1.41s-.01-4-.01-4Z"/>
        <path class="cls-1" d="M5.73,18.46c-.39-.23-.69-.56-.9-1-.21-.44-.32-.95-.32-1.55,0-.6.1-1.12.31-1.56.21-.44.5-.77.89-1.01.38-.24.84-.35,1.37-.36s.98.11,1.37.35.68.57.89,1c.21.44.31.95.32,1.55s-.1,1.12-.31,1.56c-.21.44-.51.77-.89,1-.39.23-.84.35-1.36.35s-.97-.11-1.36-.34ZM7.91,17.06c.2-.28.29-.66.29-1.15s-.1-.88-.3-1.17c-.2-.28-.47-.43-.84-.42s-.64.14-.83.43c-.19.28-.29.67-.29,1.17s.1.87.3,1.15.47.41.83.41.63-.14.83-.42Z"/>
        <path class="cls-1" d="M11.27,18.44c-.39-.23-.69-.56-.9-1-.21-.44-.32-.95-.32-1.55s.1-1.12.31-1.56c.21-.44.5-.77.89-1.01.38-.24.84-.35,1.37-.36s.98.11,1.37.35.68.57.89,1c.21.44.31.95.32,1.55s-.1,1.12-.31,1.56c-.21.44-.51.77-.89,1-.39.23-.84.35-1.36.35s-.97-.11-1.36-.34ZM13.45,17.04c.2-.28.29-.66.29-1.15s-.1-.88-.3-1.17c-.2-.28-.47-.43-.84-.42s-.64.14-.83.43c-.19.28-.29.67-.29,1.17s.1.87.3,1.15.47.41.83.41.63-.14.83-.42Z"/>
      </g>
    </g>
  </g>
</svg>