<?xml version="1.0" encoding="UTF-8"?>
<svg id="Layer_2" data-name="Layer 2" xmlns="http://www.w3.org/2000/svg" viewBox="0 0 34.92 22.24">
  <defs>
    <style>
      .cls-1, .cls-2, .cls-3 {
        stroke: #7dad7d;
        stroke-width: .1px;
      }

      .cls-1, .cls-2, .cls-3, .cls-4, .cls-5 {
        stroke-miterlimit: 10;
      }

      .cls-1, .cls-4 {
        fill: #7dad7d;
      }

      .cls-2 {
        fill: none;
      }

      .cls-3, .cls-5 {
        fill: #638962;
      }

      .cls-6 {
        opacity: .6;
      }

      .cls-4, .cls-5 {
        stroke: #638962;
        stroke-width: .5px;
      }
    </style>
  </defs>
  <g id="Layer_1-2" data-name="Layer 1">
    <g>
      <rect class="cls-4" x=".3" y=".33" width="34.31" height="21.57" transform="translate(34.86 22.32) rotate(-179.72)"/>
      <g>
        <ellipse class="cls-5" cx="12.67" cy="6.42" rx="2.9" ry="2.38" transform="translate(6.19 19.05) rotate(-89.72)"/>
        <rect class="cls-5" x="8.4" y="10.38" width="8.11" height="9.81" rx=".94" ry=".94" transform="translate(24.84 30.63) rotate(-179.72)"/>
        <rect class="cls-5" x="11.96" y="7.83" width="1.4" height="3.01" transform="translate(25.27 18.73) rotate(-179.72)"/>
      </g>
      <rect class="cls-5" x=".26" y="19.56" width="34.06" height="2.34" transform="translate(34.47 41.55) rotate(-179.72)"/>
      <g>
        <path class="cls-5" d="M28.37,18.63v-.66s2.66.01,2.66.01v-.02s-.47-.44-.47-.44c-1.24-1.21-2.03-2.09-2.02-3.18,0-.85.55-1.72,1.82-1.71.68,0,1.26.26,1.67.61l-.26.56c-.27-.23-.72-.5-1.25-.51-.88,0-1.18.55-1.18,1.15,0,.89.68,1.66,2.19,3.1l.62.61v.49s-3.78-.02-3.78-.02Z"/>
        <path class="cls-5" d="M25.53,12.6c1.2,0,2.05,1.1,2.04,3.08-.03,1.96-.82,3.03-1.97,3.03-1.31,0-2.05-1.12-2.04-3.13,0-1.88.72-2.99,1.97-2.98ZM25.58,13.22c-.83,0-1.21.95-1.21,2.4s.38,2.47,1.2,2.47c.73,0,1.21-.87,1.21-2.41s-.5-2.47-1.2-2.47Z"/>
      </g>
      <g class="cls-6">
        <ellipse class="cls-5" cx="26.45" cy="9.34" rx="1.85" ry="1.67" transform="translate(16.98 35.74) rotate(-89.72)"/>
        <ellipse class="cls-5" cx="26.53" cy="5.98" rx=".9" ry=".81" transform="translate(20.43 32.49) rotate(-89.72)"/>
        <g>
          <polygon class="cls-2" points="26.45 7.94 27.02 9.31 26.46 10.71 25.81 9.32 26.45 7.94"/>
          <polygon class="cls-2" points="26.46 8.77 26.46 8.79 26.64 9.32 26.43 9.94 26.2 9.31 26.46 8.77"/>
        </g>
      </g>
      <g class="cls-6">
        <ellipse class="cls-5" cx="4.76" cy="9.63" rx="2.08" ry="1.87" transform="translate(-4.89 14.34) rotate(-89.72)"/>
        <g>
          <polygon class="cls-1" points="4.91 7.92 5.59 9.55 4.92 11.22 4.14 9.57 4.91 7.92"/>
          <polygon class="cls-3" points="4.92 8.9 4.92 8.92 5.13 9.56 4.89 10.31 4.61 9.55 4.92 8.9"/>
        </g>
      </g>
    </g>
  </g>
</svg>