<?xml version="1.0" encoding="UTF-8"?>
<svg id="Layer_2" data-name="Layer 2" xmlns="http://www.w3.org/2000/svg" viewBox="0 0 70.95 219.32">
  <defs>
    <style>
      .cls-1 {
        fill: none;
        stroke: #45589c;
        stroke-linecap: round;
        stroke-linejoin: round;
      }
    </style>
  </defs>
  <g id="Layer_2-2" data-name="Layer 2">
    <g>
      <path class="cls-1" d="M66.94,35.49c2.22-8.61-.48-14.58-10.5-16.61-3.5-.25-4.65-2.32-4.02-5.75.98-1.98,2.56-3.01,4.84-2.92,1.3.41,2.71,2.48,4.2,5.75.62-4.64-.41-8.65-5.2-11.23-7.13-.52-10.85,1.94-12.05,6.57-.5-5.62-2.8-9.42-7.76-10.5-5.66.51-8.59,2.8-9.13,6.66-1.28-5.1-3.98-7.24-7.85-6.94-3.13,1.17-4.47,2.76-4.56,4.66,3.96-2.49,5.89-2.01,6.48.46-.3,3.08.12,5.57,1.92,6.94,2.66,1.65,5.27,1.61,7.85-.27.59-3.32,2.33-4.92,5.02-5.11,1.74.79,2.49,2.24,2.01,4.52l-4.61,3.42,9.17,2.46c3.7.91,5.6,2.86,4.59,6.53-.43,2.76.9,4.5,3.88,5.27,2.08-.32,3.42-1.41,4.02-3.24,2.8.19,4.39,1.31,5.11,3.1l-.82,4.47,7.42,1.76Z"/>
      <circle class="cls-1" cx="31.96" cy="174.02" r="1.44"/>
      <g>
        <circle class="cls-1" cx="36.56" cy="176.29" r="1.27"/>
        <circle class="cls-1" cx="39.19" cy="175.54" r="1.27"/>
        <circle class="cls-1" cx="37.05" cy="173.8" r="1.27"/>
      </g>
      <g>
        <circle class="cls-1" cx="31.86" cy="168.52" r="1.27"/>
        <circle class="cls-1" cx="34.51" cy="169.21" r="1.27"/>
        <circle class="cls-1" cx="33.54" cy="166.63" r="1.27"/>
      </g>
      <g>
        <circle class="cls-1" cx="26.64" cy="174.06" r="1.27"/>
        <circle class="cls-1" cx="27.52" cy="171.47" r="1.27"/>
        <circle class="cls-1" cx="24.88" cy="172.25" r="1.27"/>
      </g>
      <g>
        <circle class="cls-1" cx="32.09" cy="179.03" r="1.27"/>
        <circle class="cls-1" cx="29.43" cy="178.36" r="1.27"/>
        <circle class="cls-1" cx="30.42" cy="180.94" r="1.27"/>
      </g>
      <rect class="cls-1" x="19.63" y="187.07" width="17.98" height="3.49" rx=".68" ry=".68" transform="translate(42.67 -1.64) rotate(12.84)"/>
      <path class="cls-1" d="M21.67,195.4l10.13,2.19c-.16,4.57-1.93,7.19-5.11,8.08l-2.92-.5c-1.35-.76-2.36-1.83-2.92-3.29.13-2.19.39-4.36.82-6.48Z"/>
      <polyline class="cls-1" points="59.09 42.63 54.9 61.99 58.96 63.13 63.34 43.87 58.87 42.82"/>
      <line class="cls-1" x1="62.48" y1="47.48" x2="58.01" y2="46.43"/>
      <line class="cls-1" x1="59.63" y1="60.97" x2="55.15" y2="59.92"/>
      <line class="cls-1" x1="59.97" y1="59.24" x2="55.49" y2="58.19"/>
      <line class="cls-1" x1="60.99" y1="55.06" x2="56.52" y2="54.01"/>
      <line class="cls-1" x1="61.29" y1="53.19" x2="56.82" y2="52.14"/>
      <line class="cls-1" x1="62.39" y1="49.1" x2="57.91" y2="48.05"/>
      <ellipse class="cls-1" cx="51.87" cy="49.83" rx="3.15" ry="1.44" transform="translate(-8.34 89.19) rotate(-77.03)"/>
      <ellipse class="cls-1" cx="68.88" cy="45.64" rx="3.15" ry="1.44" transform="translate(8.95 102.52) rotate(-77.03)"/>
      <ellipse class="cls-1" cx="67.17" cy="53.34" rx="3.15" ry="1.44" transform="translate(.11 106.83) rotate(-77.03)"/>
      <ellipse class="cls-1" cx="65.49" cy="60.87" rx="3.15" ry="1.44" transform="translate(-8.53 111.03) rotate(-77.03)"/>
      <path class="cls-1" d="M34.46,146.11c-8.43,7.85-15,7.38-18.76-5.75-8.16,6.59-13.19,16.39-15.2,29.3-.3,16.27,10.66,32.66,21.22,49.16,11.2-6,22.15-13.07,32.86-21.09,10.79-16.84,14.12-32.95,5.75-47.93-7.62,10.04-13.77,9.61-18.35-1.92l18.07-80.1,2.05-.82,6.3-30.12-11.23-2.6-6.44,29.85,1.51,2.6-17.8,79.42Z"/>
    </g>
  </g>
</svg>