<?xml version="1.0" encoding="UTF-8"?>
<svg id="Layer_2" data-name="Layer 2" xmlns="http://www.w3.org/2000/svg" viewBox="0 0 272.89 271.6">
  <defs>
    <style>
      .cls-1 {
        fill: #b8424c;
      }

      .cls-1, .cls-2, .cls-3, .cls-4 {
        stroke: #638962;
      }

      .cls-1, .cls-2, .cls-3, .cls-4, .cls-5 {
        stroke-miterlimit: 10;
      }

      .cls-1, .cls-3, .cls-4, .cls-5 {
        stroke-width: .3px;
      }

      .cls-2 {
        fill: #e7c79a;
        stroke-width: 4px;
      }

      .cls-3, .cls-5 {
        fill: #7dad7d;
      }

      .cls-4 {
        fill: #c6ae73;
      }

      .cls-5 {
        stroke: #fff;
      }
    </style>
  </defs>
  <g id="Layer_3" data-name="Layer 3">
    <g>
      <ellipse class="cls-2" cx="136.44" cy="135.8" rx="134.44" ry="133.8"/>
      <g>
        <rect class="cls-4" x="81.44" y="98.8" width="118.87" height="113.63" rx="12" ry="12"/>
        <path class="cls-3" d="M199.78,111.43c-7.12,2.58-18.58,5.74-32.91,5.49-16.45-.29-29.18-4.94-36.44-8.23l-12.15,8.23c.04,3.35-.36,11.08-5.39,18.71-2.72,4.13-5.9,6.85-8.23,8.52-3.98-3.87-9.68-5.16-14.6-3.33-6.94,2.59-8.43,9.96-8.63,11.01-1.21,6.39,1.66,14.81,7.85,16.42,4.32,1.12,8.33-1.58,9.4-2.35,3.54,2.6,9.77,7.92,14.27,16.78,5.76,11.33,5.36,21.87,4.93,26.32-7.72,2.66-19.99,5.86-35.28,5.54-14.35-.29-25.85-3.57-33.29-6.33,4.05-3.27,8.1-6.53,12.15-9.8-2.86-9.26-14.85-51.69,8.23-92.86,10.44-18.63,24.3-30.29,33.7-36.83,7.72-3.58,22.7-9.3,42.32-9.01,19.54.29,34.32,6.4,41.92,10.19,2.53,1.53,10.29,6.64,14.11,16.85,2.81,7.52,2.1,14.14,1.57,17.24-1.18,2.48-2.35,4.96-3.53,7.44Z"/>
        <path class="cls-3" d="M201.35,163.55c-1.83,6.76-5.14,15.89-11.36,25.47-3.92,6.03-8.07,10.81-11.75,14.5,2.21,2.14,10.03,9.16,22.33,10.19,14.28,1.2,24.2-6.55,26.25-8.23-4.58-4.88-9.89-11.37-14.89-19.59-5.03-8.26-8.35-16-10.58-22.33Z"/>
        <path class="cls-5" d="M145.54,84.86c-.4,10.09-3.45,14.33-6.27,16.33-1.97,1.39-4.02,1.82-8.49,4.57-3.14,1.93-5.52,3.81-7.05,5.09"/>
        <path class="cls-5" d="M164.13,82.38c-2.08,6.15-4.96,10.47-7.03,13.12-2.91,3.71-5.86,6.22-7.73,7.78-2.68,2.25-5.15,3.91-7.05,5.09"/>
        <path class="cls-5" d="M176.14,83.69c-1.68,5.87-4.26,9.94-6.11,12.4-2.81,3.72-5.82,6.18-8.65,8.5-2.73,2.24-5.2,3.92-7.05,5.09"/>
        <path class="cls-5" d="M188.29,84.34c-.78,3.09-2.13,6.94-4.54,10.96-1.01,1.67-3.91,6.22-9.21,10.58-2.68,2.2-5.18,3.71-7.05,4.7"/>
        <path class="cls-5" d="M79.98,181.9c.34,5.18.01,12.64-3.4,20.51-.77,1.77-1.61,3.38-2.48,4.83"/>
        <path class="cls-5" d="M105.33,192.81c.11,2.55-.38,4.41-.86,5.65-1.64,4.27-5.66,7.81-5.66,7.81"/>
        <path class="cls-1" d="M213.33,125.08c-1.04,0-96.91,4.7-96.91,4.7l-41.01,14.37,1.83,5.49,37.88-10.71,7.84,2.35,6.01,18.55,29.26.52,9.93-18.02,5.75-.78,8.1,17.5,19.59-2.61,6.01-19.33,6.27-4.96-.52-7.05Z"/>
      </g>
    </g>
  </g>
</svg>