<?xml version="1.0" encoding="UTF-8"?>
<svg id="Layer_2" data-name="Layer 2" xmlns="http://www.w3.org/2000/svg" viewBox="0 0 272.89 271.6">
  <defs>
    <style>
      .cls-1 {
        fill: #b8424c;
      }

      .cls-1, .cls-2, .cls-3, .cls-4, .cls-5 {
        stroke-miterlimit: 10;
      }

      .cls-1, .cls-2, .cls-4, .cls-5 {
        stroke: #638962;
      }

      .cls-1, .cls-4, .cls-5 {
        stroke-width: .3px;
      }

      .cls-2 {
        fill: #e7c79a;
        stroke-width: 4px;
      }

      .cls-3 {
        stroke: #fff;
        stroke-linecap: round;
        stroke-width: 3px;
      }

      .cls-3, .cls-4 {
        fill: #7dad7d;
      }

      .cls-5 {
        fill: #c6ae73;
      }
    </style>
  </defs>
  <g id="Layer_3" data-name="Layer 3">
    <g>
      <ellipse class="cls-2" cx="136.44" cy="135.8" rx="134.44" ry="133.8"/>
      <g>
        <path class="cls-5" d="M187.57,228.65c-10.35,1.78-22.55,3.14-36.26,3.27-16.51.16-30.99-1.5-42.84-3.66-2.59-1.37-6.59-4-9.31-8.69-2.05-3.52-2.46-6.77-3.13-11.17-1.54-10,.21-17.03-1.76-17.63-1.09-.33-1.83,1.79-4.47,2.29-1.78.34-3.52-.23-6.3-1.89-5.71-3.41-8.57-5.12-10.15-8.69-2.7-6.07-.57-14.38,4.31-17.63,4.68-3.12,8.27.85,11.75-1.76,5.86-4.39,1.59-19.94,3.38-36.07.2-1.84.72-5.67,3.52-8.48,2.17-2.17,5.17-3.52,8.48-3.52h82.78c6.6,0,12,5.4,12,12v89.63c0,6.6-5.4,12-12,12Z"/>
        <path class="cls-4" d="M187.56,128.75c-1.22-1.24-2.45-2.48-3.67-3.72-7.57-1.97-26.52-5.83-48.8,1.44-20.54,6.7-33.04,19.3-38.23,25.21-.93,5.01-1.85,10.01-2.78,15.02-1.54-.62-3.96-1.38-7.02-1.5-3.13-.12-5.65.47-7.25.98-4.17,4.96-5.49,11.49-3.33,17.04,1.84,4.72,5.58,7.14,7.02,7.97,3.87-.15,7.75-.3,11.62-.46.5,3.61,1,7.23,1.5,10.84-20.91.62-36.76-.64-43.56-2.55-1.68-.47-5.05-1.41-8.62-4.05-3.11-2.3-5.06-4.92-6.2-6.73-2.15-4.53-5.4-13.11-4.18-23.64.99-8.53,4.44-14.3,9.6-22.92,7.21-12.05,14.98-19.11,16.85-20.77,5.55-4.94,10.84-8.28,14.76-10.45-.17-.46-.4-1.13-.63-1.98-.76-2.82-1.5-7.63.1-13.17,2.14-7.37,7.1-11.43,8.75-12.67,2.97-3.13,8-7.63,15.35-11.04,9.9-4.6,18.91-4.85,23.64-4.64,2.35.04,7.12.43,12.21,3.27,5.65,3.14,8.6,7.56,9.8,9.6,6.76-1.86,16.15-3.72,27.43-3.72,11.44,0,20.95,1.89,27.75,3.79,2.39.45,13.91,2.87,21.62,13.84,6.82,9.71,6.25,19.83,6.01,22.59-.76,3.7-2.33,9.16-5.81,15.02-3.69,6.21-8.04,10.35-11.04,12.8-3.54,2.89-5.64,4.41-7.18,5.22-2.93,1.55-5.6,2.36-7.51,2.81"/>
        <path class="cls-3" d="M96.98,98.97c-21.75,10.78-20.64,10.3-20.64,10.3"/>
        <path class="cls-1" d="M208.01,149.25c-1.04,0-96.91,4.7-96.91,4.7l-41.01,14.37,1.83,5.49,37.88-10.71,7.84,2.35,6.01,18.55,29.26.52,9.93-18.02,5.75-.78,8.1,17.5,19.59-2.61,6.01-19.33,6.27-4.96-.52-7.05Z"/>
      </g>
    </g>
  </g>
</svg>