<?xml version="1.0" encoding="UTF-8"?>
<svg id="Layer_2" data-name="Layer 2" xmlns="http://www.w3.org/2000/svg" viewBox="0 0 135.62 221.24">
  <defs>
    <style>
      .cls-1 {
        fill: #b8424c;
      }

      .cls-1, .cls-2, .cls-3, .cls-4 {
        stroke: #638962;
        stroke-miterlimit: 10;
        stroke-width: .3px;
      }

      .cls-5 {
        stroke-width: 0px;
      }

      .cls-5, .cls-3 {
        fill: #c6ae73;
      }

      .cls-2 {
        fill: #7dad7d;
      }

      .cls-4 {
        fill: #45589c;
      }
    </style>
  </defs>
  <g id="Layer_1-2" data-name="Layer 1">
    <g>
      <path class="cls-3" d="M87.43,34.05l-15.5-4.81c-1.62-.5-3.36.41-3.87,2.03l-5.74,18.48c-.5,1.62.41,3.36,2.03,3.87l3.22,1c-.02.08-.03.17-.02.26l.65,7.49c.06.66.95,1.12,1.99,1.03l2.57-.22.5-.04,6.86-.6c1.04-.09,1.84-.7,1.79-1.36l-.24-2.74c.95-.29,1.74-1.03,2.05-2.04l5.74-18.48c.5-1.62-.41-3.36-2.03-3.87Z"/>
      <path class="cls-3" d="M114.8,4.93c-.48-.43-1.23-.39-1.67.09l-2.42,2.69c-.02-.09-.06-.18-.08-.27l1.65-4.64c.22-.61-.1-1.29-.72-1.51-.61-.22-1.29.1-1.51.72l-1.22,3.43c-.14-.06-.29-.1-.44-.15l.76-3.21c.15-.63-.25-1.27-.88-1.42-.63-.15-1.27.25-1.42.88l-1,4.23V1.33c0-.65-.53-1.18-1.18-1.18s-1.18.53-1.18,1.18v5.39c-.12.05-.23.09-.35.14-.23.14-.54.35-.88.65l-2.16-2.16c-.46-.46-1.21-.46-1.67,0-.46.46-.46,1.21,0,1.67l2.42,2.42c-.93,2.16-.15,4.23,0,4.59.37,1.56.81,3.19,1.34,4.88.28.89.57,1.75.86,2.58,2.07.1,4.15.19,6.22.29-.07-.08-.86-1.02-.53-2.24.26-.97,1.06-1.42,1.2-1.49.2-2.2.39-4.4.59-6.6l4.36-4.84c.43-.48.39-1.23-.09-1.67Z"/>
      <g>
        <path class="cls-3" d="M21.31,174.79v2.01l1.91,32.82c-5.13,1.35-10.26,2.7-15.39,4.05-.58-2.36-2.81-3.73-4.81-3.16-1.77.5-3.02,2.42-2.85,4.54.04.29.09.57.13.86.26.69.68,1.54,1.38,2.34,2.1,2.43,5.04,2.57,5.78,2.58h20.53c4.5,0,8.19-3.95,8.19-8.79v-.5c-.21-.33-.57-.82-1.07-1.35l1.12-35.42h-14.92Z"/>
        <path class="cls-3" d="M133.15,210.75c-1.62-.57-3.43.8-3.89,3.16-4-1.3-8.01-2.61-12.01-3.91l-6.72-26.56-13.49,3.96.45,1.52,8.88,23.94c.22,4.58,3.1,8.23,6.6,8.23h16.59c.6-.01,2.98-.15,4.68-2.58.57-.81.91-1.66,1.12-2.34.04-.29.07-.57.11-.86.14-2.12-.88-4.04-2.31-4.54Z"/>
      </g>
      <path class="cls-3" d="M55.58,10.5c-.25-.6-.95-.88-1.55-.63l-2.78,1.17,3.96-5.85c.36-.54.22-1.28-.32-1.64-.54-.36-1.28-.22-1.64.32l-3.72,5.49c-.14-.18-.3-.34-.47-.5l2.96-4.37c.36-.54.22-1.28-.32-1.64h0c-.54-.36-1.28-.22-1.64.32l-3.06,4.52c-.3-.09-.61-.15-.92-.18l2.06-3.05c.36-.54.22-1.28-.32-1.64h0c-.54-.36-1.28-.22-1.64.32l-2.78,4.11.17-1.18c.09-.64-.36-1.24-1-1.34-.64-.09-1.24.36-1.34,1l-.79,5.51-2.18,4.33c-1.28,2.54-.25,5.66,2.28,6.94h0c2.54,1.28,5.66.25,6.94-2.28l2.65-5.25c.17-.34.3-.69.39-1.05l4.41-1.86c.6-.25.88-.95.63-1.55Z"/>
      <path class="cls-4" d="M105.25,120.98l-.16.3c.32-1.06.49-2.16.49-3.28,0-4.63-2.82-8.78-7.3-11.63l-5.98-29.76-.08-.26,25.91-30.04-9.37-26.78-6.5,1.15,4.02,18.56-3.44,7.27-16.26,13.97.02.05-4.65,1.56-12.2-.12-4.4-3.19-3.97-1.06-14.06-13.76-.51-23.02-8.52-.96-4.13,27.44,20.13,27.52-.22.56,7.27,17.66c2.54,7.09,5.19,8.87,7.84,9.77l-.93,4.26c-2.41,1.78-4.23,3.98-5.24,6.42l-.24-.33-24.87,17.6-22.19,56.63,26.02,3.44,11.1-48.59,20.8-6.21-.04.61,5.74,19.94,15.93,38.45,20.81-6.17-19.37-32.14,8.61-35.87Z"/>
      <path class="cls-2" d="M85.21,52.91l9.47-8.32,3.3-5.88-2.58-9.18-12.34-6.6-12.77.57-3.16,3.44-.29,4.74c8.24.71,14.84,3.72,20.37,6.31l-2.73,6.46"/>
      <ellipse class="cls-5" cx="86.54" cy="44.68" rx="4.29" ry="2.6" transform="translate(1.01 91.26) rotate(-55.88)"/>
      <g>
        <path class="cls-5" d="M96.34,94.67l.04.03c.06,0,.12-.01.17,0,.01,0,.02.01.03.02h0s-.16-.12-.16-.12c-.4-.3-.82-.58-1.23-.84l-.03.1c.4.26.8.53,1.17.81Z"/>
        <path class="cls-5" d="M95.37,99.49l-.19.02c-.1.01-.21.01-.31.02.12-.01.25-.01.37-.02l.25-.03h0s-.09,0-.13,0h0Z"/>
        <path class="cls-5" d="M81.75,91.52l.02.09-.02-.09c.35-.09.75-.17,1.17-.24l.02-.08c-1.48.22-2.66.65-3.08,1.35,0,0,0,0,0,.01.29-.44.92-.79,1.88-1.05Z"/>
        <path class="cls-5" d="M96.83,97.37c-.29,1.15-.84,2-1.33,2.11.52-.04,1.11-.91,1.42-2.14.34-1.33.18-2.44-.35-2.62l-.09.07c.52.15.67,1.27.34,2.58Z"/>
        <path class="cls-5" d="M100.55,64.48s0-.01,0-.02c0,0,0,.01,0,.02h0Z"/>
        <path class="cls-5" d="M99.95,64.03c.24.06.41.25.49.48l.1-.05c-.1-.28-.3-.48-.56-.54-.04,0-.08,0-.11,0l-.15.12c.08,0,.16-.02.24,0Z"/>
        <path class="cls-5" d="M99.33,64.05l.36-.14c-.12.02-.24.06-.36.14Z"/>
        <path class="cls-5" d="M100.04,64.34h0c.12.03.23.12.3.23,0,0,0,0,0-.01l.1-.05c-.08-.14-.21-.24-.37-.28l-.39-.09s-.07,0-.1,0l-.18.14s0,0-.01.01c.1-.04.19-.05.27-.03l.39.09Z"/>
        <path class="cls-5" d="M101.12,66l.07.02c.33.08.53.44.44.8v.02s.1.02.1.02c0,0,0,0,0-.01h0c.05-.21.02-.42-.08-.59s-.26-.29-.45-.35l-.07-.02h0s-.04.12-.04.12Z"/>
        <path class="cls-5" d="M101.52,66.83h0s.11,0,.11,0c.04-.38-.16-.73-.51-.83l-.03.09v.02s-.01,0-.01,0h0c.29.09.48.39.44.72Z"/>
        <path class="cls-5" d="M94.27,45.44l.03-.11c.09-.36.43-.59.76-.51l.1.02.03-.12-.1-.02c-.39-.1-.8.17-.9.6l-.03.11v-.03s.11.05.11.05Z"/>
        <path class="cls-5" d="M95.14,44.96h0s.03-.12.03-.12c-.39-.08-.78.17-.89.59h.02s.08.01.08.01v.02s0,0,0,0c.09-.36.43-.58.76-.51Z"/>
        <path class="cls-5" d="M99.21,62.82h0s.11,0,.11,0c.04-.37-.15-.71-.48-.83l-.03.11h0c.28.09.45.38.41.7Z"/>
        <path class="cls-5" d="M98.88,62.01c.33.08.53.44.44.8h0s.08.03.08.03h.02s0,0,0,0h0c.1-.42-.13-.84-.52-.94h0s-.04-.01-.04-.01l-.03.11h.04Z"/>
        <path class="cls-5" d="M97.84,60.03h0c.25.06.42.28.46.54l.11-.02c-.04-.31-.25-.56-.53-.63h0s0,.02,0,.02l-.02.09h0Z"/>
        <path class="cls-5" d="M97.81,60.14h0c.2.07.34.24.39.46,0,0,0,0,0,0l.11-.02c-.06-.25-.22-.46-.46-.54h0s-.03.12-.03.12Z"/>
        <polygon class="cls-5" points="98.41 60.56 98.41 60.55 98.41 60.56 98.41 60.56"/>
        <path class="cls-5" d="M94.61,54.05h-.01c.27.11.43.4.38.72h0s.11.01.11.01c.06-.37-.13-.71-.45-.84h0s-.03.12-.03.12Z"/>
        <path class="cls-5" d="M94.64,53.93h.02c.33.08.53.45.44.81v.04s.1.02.1.02c0,0,0,0,0,0v-.04c.11-.42-.12-.84-.52-.95h0s-.02.07-.02.07v.04s0,0,0,0Z"/>
        <path class="cls-5" d="M94.42,53.88h.04s.02-.11.02-.11c0,0,0,0,0,0h-.04c-.19-.05-.38-.01-.54.1l-.05.19c.15-.15.35-.22.56-.17Z"/>
        <path class="cls-5" d="M93.76,54.4l-.02.1h0c.09-.32.38-.53.69-.5h-.01s.02-.12.02-.12c-.23-.02-.45.08-.61.25l-.05.2s-.02.05-.03.06Z"/>
        <path class="cls-5" d="M96.37,58.04c-.17.03-.32.13-.43.27v.05s.05.05.05.05c0,0,0,0,0,0,.1-.14.25-.23.4-.26l-.02-.23c-.14.02-.26.08-.37.17l-.05.21c.11-.15.26-.25.43-.26Z"/>
        <path class="cls-5" d="M96.57,58.05s-.07,0-.11,0c.04,0,.07,0,.11,0l.02-.12s-.06,0-.08,0c-.02,0-.03,0-.05,0v.24s.03,0,.04,0h0s.04,0,.05,0h0s.02-.12.02-.12Z"/>
        <path class="cls-5" d="M101.08,65.99s.01,0,.02,0c0,0,0,0,.01,0l.03-.11h.01s-.01,0-.01,0h-.04s0,0,0,0l-.03.12Z"/>
        <polygon class="cls-5" points="101.11 65.99 101.08 65.99 101.05 66.1 101.08 66.1 101.11 65.99"/>
        <path class="cls-5" d="M101.12,66h-.01s0,0,.01,0h0Z"/>
        <polygon class="cls-5" points="101.11 65.99 101.11 65.99 101.11 65.99 101.11 65.99"/>
        <path class="cls-5" d="M101.63,66.84s0,.07,0,.11c0,.03-.03.06-.04.09l.1.03h0s0,0,0,0c.01-.02.03-.05.04-.08,0-.04,0-.07,0-.1,0,0,0-.02,0-.03h0s-.11-.01-.11-.01Z"/>
        <polygon class="cls-5" points="101.48 67.01 101.58 67.04 101.63 66.84 101.52 66.83 101.52 66.83 101.47 67.01 101.48 67.01"/>
        <polygon class="cls-5" points="101.63 66.84 101.63 66.84 101.63 66.83 101.63 66.84"/>
        <polygon class="cls-5" points="101.63 66.84 101.63 66.84 101.63 66.84 101.63 66.84"/>
        <path class="cls-5" d="M99.32,62.94s-.03.06-.04.09l.05.02h.06s.03-.04.04-.07,0-.07,0-.12h-.02s-.09-.01-.09-.01c0,.04,0,.07,0,.11Z"/>
        <polygon class="cls-5" points="99.17 62.99 99.28 63.03 99.32 62.83 99.21 62.82 99.21 62.82 99.17 63 99.17 62.99"/>
        <polygon class="cls-5" points="99.32 62.83 99.32 62.83 99.32 62.83 99.32 62.83"/>
        <path class="cls-5" d="M98.74,61.97s.04,0,.05,0c.02,0,.03.02.04.02l.03-.11h0s0,0,0,0c-.02-.01-.08-.03-.12-.03h0s-.02.12-.02.12Z"/>
        <polygon class="cls-5" points="98.8 62.11 98.83 62 98.74 61.97 98.71 62.09 98.71 62.09 98.8 62.11 98.8 62.11"/>
        <polygon class="cls-5" points="98.84 62 98.84 62 98.84 62 98.84 62"/>
        <polygon class="cls-5" points="98.84 62 98.83 62 98.83 62 98.84 62"/>
        <path class="cls-5" d="M97.77,59.99s.04.02.06.03l.03-.09v-.03s-.08-.03-.14-.03l-.02.12s.05,0,.07,0Z"/>
        <polygon class="cls-5" points="97.8 60.14 97.83 60.02 97.7 59.99 97.68 60.11 97.67 60.11 97.8 60.14 97.8 60.14"/>
        <polygon class="cls-5" points="97.84 60.03 97.84 60.03 97.83 60.02 97.83 60.02 97.84 60.03"/>
        <path class="cls-5" d="M98.41,60.99c.02-.09.02-.18.02-.27l-.12.51c.04-.06.08-.14.11-.24Z"/>
        <path class="cls-5" d="M98.1,61.13s0,0,0,0l.18-.31c.02-.08.02-.16.01-.23l-.11.02s0,0,0,0c0,.07,0,.14-.01.2l-.08.33Z"/>
        <polygon class="cls-5" points="98.41 60.54 98.4 60.55 98.41 60.55 98.41 60.54"/>
        <path class="cls-5" d="M98.32,60.75l.09-.16s0-.03,0-.04l-.11.02c.01.06.02.11.02.17Z"/>
        <polygon class="cls-5" points="98.3 60.58 98.3 60.57 98.3 60.57 98.3 60.58"/>
        <polygon class="cls-5" points="98.3 60.58 98.3 60.58 98.3 60.58 98.3 60.58"/>
        <path class="cls-5" d="M95.92,58.37l-.06.27v.19s0,0,0,0l.06-.25s.04-.1.07-.16c0,0,0,0,0,0l-.06-.05Z"/>
        <path class="cls-5" d="M96.58,58.05s.06,0,.09,0c.03,0,.05.03.08.04v-.03s.03-.09.03-.09c-.04-.02-.11-.04-.16-.04,0,0-.02,0-.03,0h0s0,0,0,0l-.02.12Z"/>
        <polygon class="cls-5" points="96.75 58.09 96.58 58.05 96.56 58.17 96.55 58.17 96.71 58.2 96.71 58.2 96.75 58.09"/>
        <polygon class="cls-5" points="96.57 58.05 96.57 58.05 96.57 58.05 96.57 58.05 96.57 58.05"/>
        <polygon class="cls-5" points="96.57 58.05 96.58 58.05 96.58 58.05 96.57 58.05"/>
        <path class="cls-5" d="M96.15,56.98s0,.09,0,.13c-.01.04-.03.07-.05.11l.1.04h0s0,0,.01-.02c.01-.03.03-.06.04-.1.01-.05.01-.09.01-.12,0-.01,0-.02,0-.03h0s-.11,0-.11,0Z"/>
        <polygon class="cls-5" points="95.99 57.18 96.09 57.22 96.15 56.98 96.04 56.96 96.04 56.96 95.98 57.19 95.99 57.18"/>
        <path class="cls-5" d="M95.09,54.79s0,.05,0,.07c0,.02-.02.04-.03.06l.1.03h0s0,0,0,0c0-.01.02-.04.03-.07s0-.06,0-.09h0s-.11-.01-.11-.01Z"/>
        <polygon class="cls-5" points="94.95 54.89 95.06 54.92 95.09 54.79 94.98 54.76 94.98 54.76 94.95 54.89 94.95 54.89"/>
        <polygon class="cls-5" points="95.09 54.78 95.09 54.77 95.09 54.77 95.09 54.78"/>
        <polygon class="cls-5" points="95.09 54.79 95.09 54.78 95.09 54.79 95.09 54.79"/>
        <path class="cls-5" d="M94.47,53.89s.06,0,.09,0c.03,0,.05.03.08.04v-.04s.03-.08.03-.08c-.04-.02-.09-.04-.18-.04h0s-.02.12-.02.12Z"/>
        <polygon class="cls-5" points="94.6 54.04 94.63 53.93 94.47 53.89 94.44 54 94.44 54 94.6 54.04 94.6 54.04"/>
        <polygon class="cls-5" points="94.46 53.89 94.45 53.88 94.45 53.89 94.46 53.89"/>
        <polygon class="cls-5" points="94.64 53.93 94.64 53.93 94.63 53.93 94.63 53.93 94.64 53.93"/>
        <polygon class="cls-5" points="94.47 53.89 94.46 53.89 94.47 53.89 94.47 53.89"/>
        <polygon class="cls-5" points="95.21 44.86 95.17 44.85 95.14 44.96 95.18 44.97 95.18 44.97 95.21 44.86"/>
        <path class="cls-5" d="M95.17,44.85s.02,0,.02,0c0,0,.01,0,.02,0l.03-.11h.01s-.02,0-.02,0h-.04s0,0,0,0l-.03.12Z"/>
        <polygon class="cls-5" points="95.17 44.85 95.17 44.84 95.17 44.85 95.17 44.85"/>
        <polygon class="cls-5" points="95.17 44.85 95.17 44.85 95.17 44.85 95.17 44.85"/>
        <polygon class="cls-5" points="94.27 45.46 94.27 45.46 94.27 45.46 94.27 45.46 94.27 45.46"/>
        <polygon class="cls-5" points="94.27 45.44 94.17 45.42 94.17 45.41 94.16 45.42 94.27 45.46 94.27 45.45 94.27 45.44"/>
        <polygon class="cls-5" points="94.38 45.48 94.38 45.47 94.27 45.44 94.27 45.46 94.3 45.46 94.38 45.48"/>
        <polygon class="cls-5" points="94.27 45.44 94.27 45.44 94.27 45.44 94.27 45.44"/>
        <polygon class="cls-5" points="94.27 45.44 94.27 45.44 94.27 45.44 94.27 45.44"/>
        <path class="cls-5" d="M93.54,54.36s.02-.06.03-.07l1.95-7.95c-.21.18-.49.26-.76.19-.24-.06-.43-.23-.54-.45l-11.05,45.08c.44-.06.9-.09,1.37-.11l8.99-36.7ZM84.35,89.05c-.25-.06-.4-.34-.33-.61s.33-.44.58-.38.4.34.33.61-.33.44-.58.38Z"/>
        <path class="cls-5" d="M85.08,115.18v.02s-.01.01-.02.02c-.03.13,0,.27.06.39.07.12.18.21.31.24h0s.24.06.24.06c.13.03.27,0,.39-.07.12-.08.2-.2.24-.34l3.94-16.1c-.42-.07-.83-.16-1.24-.25l-3.93,16.03Z"/>
        <path class="cls-5" d="M77.76,113.3c-.04.14-.02.29.05.42.07.12.18.21.31.24h0s.29.07.29.07c.26.06.54-.11.62-.4h0s0-.04,0-.06l4.12-16.83c-.41-.24-.8-.5-1.16-.75l-4.24,17.31Z"/>
        <path class="cls-5" d="M86.56,115.54c-.04.14-.02.29.05.42.07.12.18.21.31.24h0s.39.1.39.1c.13.03.27,0,.39-.07.12-.08.2-.2.24-.34l3.99-16.29c-.48-.03-.95-.09-1.43-.15l-3.95,16.11Z"/>
        <path class="cls-5" d="M94.82,55.43c-.2.15-.44.2-.68.14s-.43-.23-.54-.44l-8.8,35.91c.43-.01.86-.01,1.29,0l8.73-35.61ZM85.84,89.39c-.25-.06-.4-.34-.33-.61s.33-.44.58-.38.4.34.33.61-.33.44-.58.38Z"/>
        <path class="cls-5" d="M86.19,98.25l-3.97,16.2c-.04.14-.02.29.05.42.07.12.18.21.31.24h0s.24.06.24.06c.24.06.48-.08.59-.33,0-.03,0-.06,0-.08l3.94-16.07h0c-.38-.13-.77-.28-1.17-.44Z"/>
        <path class="cls-5" d="M96.73,60.45c.01-.06.04-.11.07-.15v-.02s.18-.71.18-.71c-.2.17-.47.24-.73.17-.23-.06-.41-.21-.52-.42l-7.81,31.85c.43.05.84.11,1.23.18l7.57-30.9ZM88.81,90.08c-.25-.06-.4-.34-.33-.61s.33-.44.58-.38.4.34.33.61-.33.44-.58.38Z"/>
        <path class="cls-5" d="M98.8,64.5l-.17.07.19-.15.22-.9c-.19.14-.44.2-.68.14s-.44-.24-.55-.46l-7,28.56c.41.12.81.25,1.21.4l6.78-27.65ZM91.73,90.83c-.25-.06-.4-.34-.33-.61s.33-.44.58-.38.4.34.33.61-.33.44-.58.38Z"/>
        <path class="cls-5" d="M80.74,114.05c-.04.14-.02.29.05.42.07.12.18.21.31.24h0s.24.06.24.06c.13.03.27,0,.39-.07.12-.08.2-.2.24-.34l3.97-16.2c-.39-.17-.79-.35-1.18-.54l-4.03,16.44Z"/>
        <path class="cls-5" d="M87.6,98.76l-3.93,16.04s-.02.06-.03.08c-.04.27.12.52.36.58h0s.24.06.24.06c.26.06.54-.11.62-.4h0s3.93-16.03,3.93-16.03c-.04,0-.08-.01-.12-.02-.36-.09-.72-.2-1.07-.32Z"/>
        <path class="cls-5" d="M95.86,57.69c-.19.14-.44.2-.67.14-.25-.06-.45-.25-.55-.48l-8.26,33.7c.43.02.86.05,1.28.09l8.2-33.45ZM87.35,89.74c-.25-.06-.4-.34-.33-.61s.33-.44.58-.38.4.34.33.61-.33.44-.58.38Z"/>
        <path class="cls-5" d="M100.28,65.52c-.21.18-.48.26-.76.19-.3-.08-.52-.32-.6-.62l-6.65,27.16c.45.18.89.37,1.32.59l6.7-27.32ZM93.28,91.19c-.25-.06-.4-.34-.33-.61s.33-.44.58-.38.4.34.33.61-.33.44-.58.38Z"/>
        <path class="cls-5" d="M101.35,67.53c-.2.14-.44.2-.68.14-.25-.06-.45-.24-.55-.47l-6.27,25.77c.39.2.77.42,1.15.66l6.35-26.09ZM94.83,91.57c-.25-.06-.4-.34-.33-.61s.33-.44.58-.38.4.34.33.61-.33.44-.58.38Z"/>
        <path class="cls-5" d="M79.25,113.68h0c-.04.29.11.55.37.6l.24.06c.27.07.56-.12.63-.42l4.03-16.44c-.39-.2-.77-.4-1.14-.62l-4.12,16.81Z"/>
        <path class="cls-5" d="M88.25,115.96c-.04.14-.02.29.05.42.07.12.18.21.31.24h0s.24.06.24.06c.27.07.56-.12.63-.42l4.05-16.64c-.44,0-.87,0-1.3-.03l-3.99,16.37Z"/>
        <path class="cls-5" d="M90.6,91.69l7.17-29.28v-.02s.02-.02.02-.03l.12-.5h0s.08-.3.08-.3c-.19.13-.42.17-.64.12-.25-.06-.44-.24-.55-.47l-7.4,30.19c.4.08.8.18,1.2.29ZM89.93,89.85c.07-.27.33-.44.58-.38s.4.34.33.61-.33.44-.58.38-.4-.34-.33-.61Z"/>
        <path class="cls-5" d="M96.09,94.77s-.02-.01-.02-.02c-.3.27-.73.73-1.03,1.35.32-.63.77-1.08,1.06-1.33Z"/>
        <path class="cls-5" d="M92.19,92.58c.45.18.89.37,1.32.59l.02-.08.02-.09c-.41-.21-.85-.4-1.32-.59l-.04.17Z"/>
        <path class="cls-5" d="M94.91,93.96l.04-.17c-.35-.22-.74-.44-1.15-.65l-.04.17c.39.2.77.41,1.15.65Z"/>
        <path class="cls-5" d="M87.63,91.45v-.12s0-.03,0-.03c-.42-.04-.86-.07-1.29-.09l-.03.14c.43.02.87.05,1.32.1Z"/>
        <path class="cls-5" d="M93.68,99.37c.44-.01.88-.04,1.31-.08-.01-.02-.02-.05-.03-.07-2.61.25-5.13-.03-7.5-.83-3.68-1.24-7.82-3.94-7.44-5.45.15-.62,1.23-1.13,2.82-1.4-.37.06-.72.13-1.03.21h-.02c-1.09.3-1.73.72-1.86,1.23-.17.69.57,1.66,2.07,2.75l.06.04v.05c.35.26.74.51,1.15.76v-.05s.21.11.21.11v.06c.36.22.75.42,1.14.62v-.05s.25.12.25.12v.06c.39.19.79.38,1.18.54v-.05s.26.1.26.1v.06c.38.16.77.31,1.15.44l.02-.06.21.07v.06c.41.13.81.24,1.2.34l.02-.07.21.05v.06c.41.1.83.18,1.23.24l.02-.06.22.03v.07c.5.07.99.12,1.45.15l.02-.07.3.02-.02.07c.46.02.89.03,1.3.02l.02-.08h.09Z"/>
        <path class="cls-5" d="M84.51,91.22h0c-.48.02-.94.06-1.37.12l-.04.16c.43-.06.9-.11,1.39-.14l.02-.14Z"/>
        <path class="cls-5" d="M84.72,91.35c.42-.02.86-.02,1.32,0v-.12s.01-.02.01-.02c-.44-.01-.87-.01-1.3,0l-.04.14Z"/>
        <path class="cls-5" d="M90.57,91.85c-.39-.11-.79-.2-1.2-.29l-.04.15c.26.05.53.11.79.17.14.03.27.09.41.13l.02-.1.02-.06Z"/>
        <path class="cls-5" d="M89.12,91.51c-.4-.07-.81-.13-1.23-.18l-.04.15c.42.05.84.11,1.26.19v-.11s0-.05,0-.05Z"/>
        <path class="cls-5" d="M91.98,92.32c-.38-.15-.79-.28-1.2-.41l-.04.16c.42.12.83.26,1.24.41v-.1s0-.07,0-.07Z"/>
        <path class="cls-5" d="M90.71,91.72s0,0,0,0l7.18-29.29s0,.01-.01.02l-7.17,29.27Z"/>
        <path class="cls-5" d="M84.57,88.17c-.19-.05-.39.08-.45.29s.06.42.25.47.39-.08.45-.29-.06-.42-.25-.47ZM84.41,88.82c-.13-.03-.21-.18-.18-.32s.18-.24.31-.2.21.18.18.32-.18.24-.31.2Z"/>
        <path class="cls-5" d="M86.06,88.52c-.19-.05-.39.08-.45.29s.06.42.25.47.39-.08.45-.29-.06-.42-.25-.47ZM85.9,89.16c-.13-.03-.21-.18-.18-.32s.18-.24.31-.2.21.18.18.32-.18.24-.31.2Z"/>
        <path class="cls-5" d="M90.49,89.59c-.19-.05-.39.08-.45.29s.06.42.25.47.39-.08.45-.29-.06-.42-.25-.47ZM90.32,90.23c-.13-.03-.21-.18-.18-.33s.18-.24.31-.2.21.18.18.32-.18.24-.31.2Z"/>
        <path class="cls-5" d="M91.95,89.95c-.19-.05-.39.08-.45.29s.06.42.25.47.39-.08.45-.29-.06-.42-.25-.47ZM91.79,90.6c-.13-.03-.21-.18-.18-.33s.18-.24.31-.2.21.18.18.32-.18.24-.31.2Z"/>
        <path class="cls-5" d="M89.03,89.21c-.19-.05-.39.08-.45.29s.06.42.25.47.39-.08.45-.29-.06-.42-.25-.47ZM88.87,89.85c-.13-.03-.21-.18-.18-.32s.18-.24.31-.2.21.18.18.32-.18.24-.31.2Z"/>
        <path class="cls-5" d="M95.6,59.38v-.2s-7.83,31.97-7.83,31.97c.01,0,.03,0,.04,0l7.79-31.78Z"/>
        <path class="cls-5" d="M95.05,90.69c-.19-.05-.39.08-.45.29s.06.42.25.47.39-.08.45-.29-.06-.42-.25-.47ZM94.88,91.34c-.13-.03-.21-.18-.18-.32s.18-.24.31-.2.21.18.18.32-.18.24-.31.2Z"/>
        <path class="cls-5" d="M93.5,90.32c-.19-.05-.39.08-.45.29s.06.42.25.47.39-.08.45-.29-.06-.42-.25-.47ZM93.34,90.96c-.13-.03-.21-.18-.18-.32s.18-.24.31-.2.21.18.18.32-.18.24-.31.2Z"/>
        <path class="cls-5" d="M94.19,55.35c-.34-.08-.53-.44-.45-.81v-.03s0,0,0,0v.04s-.01,0-.01,0h0s-.1-.02-.1-.02c-.09.42.14.84.53.94s.76-.15.89-.54l-.11-.03h0c-.12.33-.44.53-.76.45Z"/>
        <path class="cls-5" d="M99.17,63.01h0c-.13.32-.44.5-.75.42-.34-.09-.54-.46-.45-.83.09-.35.4-.57.74-.51h0s.02-.12.02-.12c-.38-.06-.76.19-.86.6-.11.43.13.87.53.97.37.09.74-.14.88-.51h-.02s-.09-.03-.09-.03Z"/>
        <path class="cls-5" d="M100.35,64.58c.05.14.06.27.02.39-.09.37-.45.6-.79.51s-.54-.46-.45-.83c.05-.19.16-.31.26-.38,0,0-.01,0-.02,0l-.23.09c-.05.08-.1.17-.12.26-.11.43.13.87.53.97s.81-.17.92-.6c.04-.16.02-.32-.03-.47l-.1.05s0,0,0,0Z"/>
        <path class="cls-5" d="M92.16,92.21l6.76-27.57c.02-.09.06-.16.11-.23l-.1.04-6.8,27.74s.02.01.04.02Z"/>
        <path class="cls-5" d="M87.57,88.87c-.19-.05-.39.08-.45.29s.06.42.25.47.39-.08.45-.29-.06-.42-.25-.47ZM87.41,89.51c-.13-.03-.21-.18-.18-.32s.18-.24.31-.2.21.18.18.32-.18.24-.31.2Z"/>
        <path class="cls-5" d="M101.47,67.02h0c-.13.31-.44.5-.75.42-.34-.09-.54-.46-.45-.83s.43-.59.77-.51h0s0,0,0,0h0s0,0,0,0l.02-.11c-.39-.09-.79.18-.9.6s.13.87.53.97c.37.09.74-.14.88-.51h-.03s-.08-.03-.08-.03Z"/>
        <path class="cls-5" d="M93.63,54.52h-.01s-8.95,36.53-8.95,36.53c0,0,0,0,.01,0l8.95-36.53Z"/>
        <path class="cls-5" d="M100.05,63.77l-.36.14c.06,0,.12,0,.18,0l.19-.14Z"/>
        <path class="cls-5" d="M97.41,61.45c-.34-.09-.54-.46-.45-.83.08-.34.39-.56.72-.51h0s.02-.12.02-.12c-.37-.05-.74.2-.84.61-.11.43.13.87.53.97.24.06.48-.02.66-.18l.06-.25c-.15.25-.43.38-.69.32Z"/>
        <path class="cls-5" d="M100.52,65.03l-6.83,27.86s.04.02.06.03l6.44-26.46c.09-.36.43-.59.76-.51l.12.03.03-.12-.12-.03c-.19-.05-.39,0-.56.1,0,0-.01,0-.02.01l.22-.9c.05-.2.02-.4-.07-.58l-.1.05c.08.14.11.32.06.5Z"/>
        <path class="cls-5" d="M101.58,67.05l-6.49,26.64s.07.04.1.06l6.5-26.68-.11-.03h0Z"/>
        <path class="cls-5" d="M99.27,63.04l-.31,1.28.32-.24s.04-.01.06-.03h-.03c-.07.04-.14.08-.2.12l.27-1.11-.05-.02h-.05s0,0,0,0Z"/>
        <path class="cls-5" d="M89.26,91.37s.02,0,.03,0l7.61-31.06c-.03.05-.06.1-.07.16l-7.57,30.9Z"/>
        <path class="cls-5" d="M88.9,99.12s0,0,0,0l-3.93,16.04s0-.01.01-.02l3.92-16.01Z"/>
        <path class="cls-5" d="M83.27,96.81s0,0-.01,0l-4.12,16.79s0,.04,0,.06c0,0,0,0,0-.02l4.12-16.83Z"/>
        <polygon class="cls-5" points="100.54 64.46 100.54 64.46 100.54 64.46 100.54 64.46"/>
        <path class="cls-5" d="M98.11,61.55l-.22.89c.1-.35.43-.56.75-.48l.08.02.02-.12s0,0,0,0l-.08-.02c-.19-.05-.39,0-.55.1l.17-.71s0,.01-.01.02l-.18.31Z"/>
        <path class="cls-5" d="M87.5,98.73s-.02,0-.03,0l-3.94,16.06s0,.05,0,.08c.01-.03.03-.05.04-.08l3.93-16.05Z"/>
        <path class="cls-5" d="M95.98,57.19c-.13.31-.44.48-.73.41-.34-.09-.54-.46-.45-.83s.45-.6.79-.51c.29.07.48.37.45.7h0s.11,0,.11,0c.03-.38-.18-.73-.53-.82-.4-.1-.81.17-.92.6s.13.87.53.97c.36.09.71-.12.86-.47l-.1-.03h0Z"/>
        <path class="cls-5" d="M94.8,46.42c.4.1.81-.17.92-.6s-.12-.84-.5-.95l-.04.11h0c.33.09.52.45.43.82s-.45.6-.79.51-.54-.45-.45-.82h0s0,0,0,0v.02s-.07-.04-.07-.04h0s-.03,0-.03,0h0c-.1.43.13.86.53.96Z"/>
        <path class="cls-5" d="M96.75,58.09h.06c.33.09.53.46.44.82l-.35,1.41c.14-.26.41-.42.69-.35l.09.02.02-.12s0,0,0,0h0s-.09-.02-.09-.02c-.18-.04-.36,0-.52.09l.25-1c.1-.42-.13-.84-.52-.94h0s-.06-.02-.06-.02l-.02.08v.03s0,0,0,0Z"/>
        <path class="cls-5" d="M98.48,60.47l-.07.12s.01.08.01.12l.06-.24Z"/>
        <path class="cls-5" d="M86.2,91.04s.04,0,.06,0l8.45-34.47c.09-.36.43-.59.76-.51l.24.06c.33.08.53.44.44.8v.03s.1.02.1.02c0,0,0,0,0,0v-.03c.06-.2.03-.42-.07-.59-.1-.18-.26-.3-.44-.35h0s-.24-.06-.24-.06c-.19-.05-.39,0-.56.1-.03.02-.05.04-.07.05l.28-1.16-.11-.03-8.85,36.12Z"/>
        <path class="cls-5" d="M89.59,116.28c-.09.36-.43.59-.76.51l-.24-.06c-.33-.08-.53-.44-.44-.8l3.98-16.35s-.05,0-.07,0l-4,16.32c-.09.36-.43.59-.76.51l-.39-.09c-.33-.08-.53-.44-.44-.8l3.94-16.1s-.03,0-.04,0l-3.95,16.11c-.09.36-.43.59-.76.51l-.24-.06c-.33-.08-.53-.44-.44-.8h0c-.1.34-.43.56-.75.48l-.24-.06c-.31-.07-.49-.39-.45-.72-.12.31-.42.5-.73.42l-.24-.06c-.33-.08-.53-.44-.44-.8l3.97-16.22s-.02,0-.04-.01l-3.97,16.18c-.09.36-.43.59-.76.51l-.24-.06c-.33-.08-.53-.44-.44-.8l4.03-16.46s-.04-.02-.06-.03l-4.02,16.41c-.09.36-.43.59-.76.51l-.24-.06c-.31-.08-.5-.4-.45-.74-.09.35-.43.57-.76.49l-.29-.07c-.33-.08-.53-.44-.44-.8l4.25-17.35c-1.22-.88-2.08-1.81-2.19-2.62,0,.01-.02.02-.03.03.11.89,1.16,1.84,2.11,2.54l-4.26,17.37c-.05.2-.02.42.07.59.1.18.25.3.44.35h0s.29.07.29.07c.26.06.52-.04.7-.24.07.24.25.43.5.49h0s.24.06.24.06c.27.07.54-.04.72-.24.01.09.04.18.09.27.1.18.25.3.44.35h0s.24.06.24.06c.19.05.39,0,.56-.1.05-.04.1-.08.15-.13.02.08.04.15.08.22.1.18.25.3.44.35h0s.24.06.24.06c.24.06.49-.02.67-.21.07.25.25.44.5.5h0s.24.06.24.06c.25.06.5-.02.68-.2.02.06.04.12.07.18.1.18.25.3.44.35h0s.24.06.24.06c.19.05.39,0,.56-.1.06-.04.12-.09.17-.15.02.07.04.13.08.19.1.18.25.3.44.35h0s.39.1.39.1c.19.05.39,0,.56-.1.08-.05.15-.12.2-.19.01.1.04.19.09.28.1.18.25.3.44.35h0s.24.06.24.06c.39.1.79-.17.9-.6l4.07-16.7c.38-.01.75-.05,1.11-.08-.41.04-.82.07-1.23.08l-4.06,16.67Z"/>
        <path class="cls-5" d="M95.22,44.86l.13.03c.33.08.53.44.44.8l-2.03,8.3s.09-.09.15-.13l2-8.15c.1-.42-.13-.84-.52-.94h0s-.13-.03-.13-.03h0s-.04.12-.04.12Z"/>
        <path class="cls-5" d="M94.27,45.46h0l-.11-.03h0s0,0,0,0l-11.21,45.77s.08-.01.12-.02l11.2-45.73Z"/>
        <path class="cls-5" d="M96.09,57.24l-.25,1.01c.04-.06.1-.11.15-.16l.2-.83s0,0,0,0l-.1-.04Z"/>
        <path class="cls-5" d="M96.27,59.62c.4.1.81-.17.92-.6.1-.4-.1-.79-.44-.93h0s-.02.12-.02.12h-.01c.3.12.46.45.38.79-.09.37-.45.6-.79.51-.28-.07-.47-.35-.46-.67l-.07.29c.07.24.25.44.5.5Z"/>
        <path class="cls-5" d="M87.77,91.36v-.05s-.01,0-.03,0v.05s.01,0,.03,0Z"/>
        <path class="cls-5" d="M94.93,96.78c.07-.27.18-.52.3-.74.01-.03.03-.06.04-.09.02-.05.05-.1.07-.15-.19.29-.37.63-.47,1.02-.14.54-.12,1.08-.12,1.11,0,.06,0,.16.02.27,0-.19.02-.41.04-.63.01-.21.04-.5.11-.8Z"/>
        <path class="cls-5" d="M96.23,94.74s.05-.02.08-.03c-.36-.27-.78-.56-1.26-.86l-.02.07c.45.28.85.56,1.2.82Z"/>
        <path class="cls-5" d="M81.78,91.61v.02c.37-.1.79-.18,1.23-.24v-.03c-1.07.15-1.97.42-2.53.8.34-.21.78-.38,1.29-.52,0,0,0-.02,0-.02Z"/>
        <polygon class="cls-5" points="90.66 91.94 90.68 91.88 90.67 91.88 90.66 91.94 90.66 91.94"/>
        <path class="cls-5" d="M84.63,91.24v-.04s0,0,0,0v.04s0,0,0,0Z"/>
        <path class="cls-5" d="M89.24,91.59v-.05s0,0-.02,0v.05s0,0,.02,0Z"/>
        <path class="cls-5" d="M92.11,92.43v-.06s-.01,0-.02-.01v.06s.01,0,.02.01Z"/>
        <path class="cls-5" d="M93.69,93.15l.02-.07s-.04-.02-.06-.03l-.02.06s.04.02.06.03Z"/>
        <path class="cls-5" d="M86.22,91.25v-.04s-.03,0-.05,0v.04s.03,0,.05,0Z"/>
        <path class="cls-5" d="M96.26,94.79c.06-.02.12-.02.18,0l.03-.02-.08-.06s-.04,0-.07.01c0,0,.02.01.02.02-.02.01-.05.04-.08.06Z"/>
        <polygon class="cls-5" points="100.45 64.52 100.44 64.51 100.44 64.51 100.45 64.52"/>
        <path class="cls-5" d="M99.71,64.03c-.13.02-.26.06-.37.14.08-.03.16-.04.24-.04l.13-.1Z"/>
        <path class="cls-5" d="M93.65,54.46c.04-.13.11-.23.19-.32l.02-.09c-.07.07-.14.16-.18.27l-.04.14h0Z"/>
        <path class="cls-5" d="M95.94,58.31h0s-.03.02-.04.03h0s.02-.02.04-.03Z"/>
        <polygon class="cls-5" points="101.08 65.99 101.08 65.99 101.08 65.99 101.08 65.99"/>
        <polygon class="cls-5" points="101.58 67.05 101.58 67.04 101.58 67.04 101.58 67.05"/>
        <polygon class="cls-5" points="99.27 63.04 99.28 63.03 99.28 63.03 99.27 63.04"/>
        <polygon class="cls-5" points="98.74 61.97 98.73 61.97 98.74 61.97 98.74 61.97"/>
        <polygon class="cls-5" points="97.7 59.99 97.69 59.99 97.7 59.99 97.7 59.99"/>
        <path class="cls-5" d="M98.28,60.83l-.09.35c.04-.07.08-.14.1-.22.02-.07.02-.14.02-.21l-.03.06s0,.01,0,.02Z"/>
        <polygon class="cls-5" points="95.9 58.35 95.9 58.35 95.92 58.37 95.92 58.36 95.9 58.34 95.9 58.35"/>
        <polygon class="cls-5" points="95.9 58.35 95.9 58.35 95.9 58.34 95.83 58.29 95.83 58.3 95.9 58.35"/>
        <path class="cls-5" d="M95.75,58.65c-.01.06,0,.11-.01.17l.07-.27c.02-.07.05-.14.09-.2h0c-.07.09-.12.19-.15.3Z"/>
        <polygon class="cls-5" points="96.75 58.09 96.75 58.09 96.75 58.09 96.75 58.09 96.75 58.09"/>
        <polygon class="cls-5" points="96.15 56.98 96.15 56.97 96.15 56.98 96.15 56.98"/>
        <polygon class="cls-5" points="96.09 57.23 96.09 57.22 96.09 57.22 96.09 57.23"/>
        <polygon class="cls-5" points="95.05 54.92 95.06 54.92 95.06 54.92 95.05 54.92"/>
        <polygon class="cls-5" points="93.64 54.48 93.64 54.47 93.65 54.46 93.63 54.46 93.63 54.47 93.64 54.48"/>
        <path class="cls-5" d="M93.64,54.48l.1.03h0s0,0,0,0l-.09-.03s0,0,0,.01h0Z"/>
        <path class="cls-5" d="M93.64,54.48s0,.01,0,.02c0,0,0,.01,0,.02v-.04s0,0,0,0Z"/>
        <polygon class="cls-5" points="95.21 44.86 95.21 44.86 95.21 44.86 95.21 44.86"/>
        <path class="cls-5" d="M89.11,91.67h0s.21.06.21.06h0c-.06-.03-.12-.04-.18-.05-.01,0-.02,0-.04,0Z"/>
        <path class="cls-5" d="M90.53,92.03l.21.05h0c-.07-.02-.14-.05-.21-.07h0Z"/>
        <path class="cls-5" d="M94.64,97.95c0,.09,0,.27.05.48h0c.05.28.14.54.27.79,0,0,.02,0,.03,0-.05-.09-.09-.2-.13-.32-.06-.16-.11-.33-.14-.5h0c-.04-.22-.05-.39-.05-.49,0-.02-.02-.59.13-1.16.06-.23.14-.44.24-.64-.11.21-.2.44-.26.69-.15.57-.13,1.12-.12,1.15Z"/>
        <path class="cls-5" d="M91.98,92.51l.21.08h0c-.07-.04-.14-.07-.21-.1v.02Z"/>
        <path class="cls-5" d="M94.98,94.02c.37.24.74.49,1.09.74,0,0,.02-.02.02-.02-.38-.28-.78-.53-1.17-.78v.02s.06.04.06.04Z"/>
        <path class="cls-5" d="M93.5,93.18l.26.14h0c-.09-.06-.17-.11-.26-.15v.02Z"/>
        <path class="cls-5" d="M87.63,91.46l.22.03h0c-.07-.02-.15-.03-.22-.04h0Z"/>
        <path class="cls-5" d="M86.04,91.35h.26s0,0,0,0c-.09,0-.18,0-.27-.01h0Z"/>
        <path class="cls-5" d="M84.49,91.37h.23s0-.02,0-.02c-.08,0-.15,0-.23,0h0Z"/>
        <path class="cls-5" d="M83.1,91.49h0c-.09.01-.18.03-.27.04.07-.01.13-.02.19-.03h.08Z"/>
        <path class="cls-5" d="M80.48,92.15c-.27.17-.48.37-.59.59,0,.05,0,.1-.01.15.07-.28.29-.53.6-.74Z"/>
        <path class="cls-5" d="M84.76,91.2l.04-.16s-.08,0-.11,0l-.04.16s.08,0,.11,0Z"/>
        <path class="cls-5" d="M84.8,97.5v-.04c-.08-.04-.17-.08-.25-.13l-.04.16s.07.04.1.05l.02-.09s.04.02.06.03l-.02.09s.07.03.1.05l.03-.12Z"/>
        <path class="cls-5" d="M82.03,95.85v-.03c-1.37-.99-2.29-2.02-2.17-2.83-.02.06-.05.11-.07.17-.02.78.85,1.74,2.13,2.67l-.02.09s.06.05.1.07l.03-.14Z"/>
        <path class="cls-5" d="M84.63,91.21l.04-.16s-.08,0-.12,0l-.04.16s.08,0,.12,0Z"/>
        <path class="cls-5" d="M87.74,91.31l.04-.15s-.07,0-.11-.01l-.04.15s.07,0,.11.01Z"/>
        <path class="cls-5" d="M87.62,98.6c-.07-.02-.15-.04-.22-.07,0,0,0,0,0,0l-.04.15s.07.02.11.03l.02-.1s.02,0,.03,0l-.02.1s.07.02.11.03l.03-.1v-.05Z"/>
        <path class="cls-5" d="M93.55,93s.07.04.1.05l.04-.16s-.07-.03-.1-.05l-.04.16Z"/>
        <path class="cls-5" d="M86.23,98.09c-.08-.03-.16-.07-.24-.1l-.04.16s.07.03.1.04l.02-.1s.02,0,.04.01l-.02.1s.07.03.1.04l.04-.16Z"/>
        <path class="cls-5" d="M87.89,91.33l.04-.15s-.07,0-.11-.01l-.04.15s.07,0,.11.01Z"/>
        <path class="cls-5" d="M89.17,91.52s.03,0,.05.01l.04-.15s-.04,0-.06-.01c-.02,0-.03,0-.05,0l-.04.15s.04,0,.06,0Z"/>
        <path class="cls-5" d="M93.81,93.14l.04-.17s-.07-.03-.1-.05l-.04.16s.07.04.1.05Z"/>
        <path class="cls-5" d="M83.4,96.7c-.07-.04-.14-.08-.2-.12l-.04.16s.06.04.1.06l.02-.09s0,0,.01,0l-.02.09s.07.04.1.06l.03-.12v-.04Z"/>
        <path class="cls-5" d="M89.37,91.56l.04-.16s-.07-.02-.11-.02l-.04.15s.07.02.11.02Z"/>
        <path class="cls-5" d="M92.26,99.5l.02-.06c-.1,0-.2,0-.3-.01l-.04.16s.08,0,.11,0l.03-.11s.05,0,.07,0l-.03.11s.08,0,.11,0l.02-.09Z"/>
        <path class="cls-5" d="M86.34,91.21l.04-.16s-.07,0-.11,0l-.04.16s.07,0,.11,0Z"/>
        <path class="cls-5" d="M92.23,92.41l.04-.16s-.07-.03-.1-.04l-.04.16s.07.03.1.04Z"/>
        <path class="cls-5" d="M83.18,91.17s-.08.01-.12.02l-.04.17s.08-.01.12-.02l.04-.17Z"/>
        <path class="cls-5" d="M86.05,91.2s.08,0,.11,0l.04-.15s-.08,0-.11,0l-.04.16Z"/>
        <path class="cls-5" d="M94.95,93.79s.07.04.1.06l.04-.16s-.07-.04-.1-.06l-.04.16Z"/>
        <path class="cls-5" d="M90.53,99.33v-.06c-.08-.01-.16-.03-.24-.04l-.04.16s.07,0,.11.01l.03-.11s.03,0,.04,0l-.03.11s.07,0,.11.01l.02-.09Z"/>
        <path class="cls-5" d="M93.57,99.45l-.04.16s.08,0,.11,0l.03-.12c.54-.02,1.03-.05,1.46-.1-.01-.01-.03-.02-.04-.03-.46.05-.97.08-1.53.09Z"/>
        <path class="cls-5" d="M89.04,98.99c-.07-.02-.14-.03-.22-.05l-.04.16s.07.01.11.02l.02-.1s0,0,0,0l-.02.1s.07.01.11.02l.02-.1v-.05Z"/>
        <path class="cls-5" d="M90.67,91.88l.04-.16s-.07-.02-.11-.03l-.04.15s.07.02.11.03Z"/>
        <path class="cls-5" d="M90.78,91.91l.04-.16s-.07-.02-.11-.03l-.04.16s.07.02.11.03Z"/>
        <path class="cls-5" d="M92.09,92.36l.04-.16s-.07-.03-.1-.04l-.04.16s.07.03.1.04Z"/>
        <path class="cls-5" d="M96.24,94.8s.03-.02.04-.03c-.01,0-.03-.02-.04-.03-.31.12-.63.5-.89,1.06,0,0,.01-.02.02-.03.27-.53.58-.89.88-.98Z"/>
        <path class="cls-5" d="M99.34,64.17c-.12.05-.23.13-.31.24l.12-.05c.05-.08.12-.14.19-.2Z"/>
        <polygon class="cls-5" points="100.45 64.53 100.45 64.52 100.45 64.53 100.45 64.53"/>
        <polygon class="cls-5" points="98.8 64.5 98.93 64.45 98.96 64.32 98.82 64.42 98.8 64.5"/>
        <path class="cls-5" d="M93.54,54.44h0s.09.02.09.02l.02-.07s.02-.04.03-.07l.08-.32c-.08.08-.14.18-.19.3l-.04.15Z"/>
        <polygon class="cls-5" points="95.81 58.29 95.81 58.29 95.81 58.28 95.81 58.29"/>
        <path class="cls-5" d="M95.83,58.29v-.04s0,.01-.01.02h.01Z"/>
        <polygon class="cls-5" points="101.08 65.99 101.07 65.99 101.07 65.99 101.08 65.99"/>
        <polygon class="cls-5" points="101.58 67.05 101.58 67.05 101.58 67.05 101.58 67.05"/>
        <polygon class="cls-5" points="99.27 63.04 99.27 63.04 99.27 63.04 99.27 63.04"/>
        <polygon class="cls-5" points="98.73 61.97 98.73 61.97 98.73 61.97 98.73 61.97"/>
        <polygon class="cls-5" points="97.69 59.99 97.69 59.99 97.69 59.99 97.69 59.99"/>
        <path class="cls-5" d="M97.99,61.56s0,0,0,0l-.07.3.19-.32.09-.37c-.04.08-.1.14-.16.2l-.04.18Z"/>
        <path class="cls-5" d="M95.81,58.29c-.08.11-.14.22-.17.34-.01.06-.01.11-.01.15l-.02.4.22-.88h-.02Z"/>
        <path class="cls-5" d="M95.58,59.93l.2-.81c-.03-.09-.05-.19-.04-.3l-.14.56-.02.55Z"/>
        <polygon class="cls-5" points="95.81 58.28 95.81 58.28 95.81 58.28 95.81 58.28"/>
        <polygon class="cls-5" points="96.15 56.97 96.16 56.96 96.15 56.96 96.15 56.97"/>
        <polygon class="cls-5" points="96.09 57.24 96.09 57.23 96.08 57.24 96.09 57.24"/>
        <polygon class="cls-5" points="95.05 54.92 95.05 54.92 95.05 54.92 95.05 54.92"/>
        <polygon class="cls-5" points="93.54 54.45 93.54 54.44 93.53 54.45 93.52 54.5 93.62 54.52 93.63 54.47 93.54 54.45"/>
        <polygon class="cls-5" points="93.63 54.52 93.63 54.52 93.63 54.51 93.63 54.52"/>
        <path class="cls-5" d="M95.22,44.86h-.01s0,0,.01,0h0Z"/>
        <path class="cls-5" d="M95.16,96.94c-.13.5-.17.95-.16,1.32,0,.02,0,.04,0,.06.06.33.18.64.35.92,0,0,0,0,0,0,.22.06.55-.24.84-.79-.27.49-.57.76-.77.71-.33-.08-.48-1.03-.17-2.25s.83-1.9,1.17-1.9h0c-.08-.02-.17.01-.27.08-.12.11-.26.26-.4.43-.22.34-.44.82-.59,1.42Z"/>
        <polygon class="cls-5" points="95.5 99.48 95.5 99.48 95.51 99.48 95.5 99.48"/>
        <path class="cls-5" d="M96.41,94.86s0,0,0,0l.08-.06s0,0-.01,0c-.01,0-.03,0-.05,0l-.1.08s.05,0,.07,0Z"/>
        <path class="cls-5" d="M95.04,96.98s0-.04.01-.06c0,0,0,0,0,0,0-.03.01-.06.02-.09.01-.05.03-.1.05-.15.09-.31.2-.59.32-.83-.19.29-.37.63-.47,1.01-.14.53-.12,1.07-.12,1.07,0,.06,0,.15.02.25,0-.34.05-.74.15-1.15,0-.02,0-.03.01-.05Z"/>
        <path class="cls-5" d="M95.33,99.36s-.03-.02-.05-.03l.09.14s.09,0,.13,0l-.07-.12s-.07,0-.1,0Z"/>
        <path class="cls-5" d="M96.45,94.9c.46.12.59,1.21.27,2.44-.23.9-.62,1.62-1,1.9.39-.25.82-.99,1.06-1.94.31-1.23.19-2.33-.27-2.44-.03,0-.07,0-.1,0-.01.01-.03.03-.05.04.03,0,.06,0,.09,0Z"/>
        <path class="cls-5" d="M94.95,96.89c-.06.24-.1.47-.13.69,0,.07,0,.14,0,.19.03-.29.08-.6.16-.93.08-.31.17-.58.28-.84,0,.01-.01.03-.02.04-.11.26-.21.54-.28.85Z"/>
        <path class="cls-5" d="M95.17,99.38s0,0,0,0c-.01,0-.03,0-.04,0,.05.04.1.07.16.08.02,0,.05,0,.07,0h0s0,0-.01,0c-.06-.02-.12-.05-.18-.09Z"/>
        <path class="cls-5" d="M94.9,98.52c-.01-.05-.03-.11-.04-.16-.04-.2-.04-.36-.05-.46,0,0,0-.06,0-.13-.02.25-.02.47,0,.67.08.39.22.7.35.91.03,0,.05,0,.08,0-.01-.02-.02-.04-.03-.05-.17-.12-.27-.4-.31-.77Z"/>
        <path class="cls-5" d="M95.27,95.95s-.01.04-.02.05c.34-.62.8-1.04,1.01-1.21,0,0-.01,0-.02,0-.15.13-.54.47-.88.98-.03.06-.06.11-.09.18Z"/>
        <path class="cls-5" d="M96.34,94.86h0c-.07.02-.15.06-.23.12.06-.04.12-.06.18-.08.01-.01.03-.03.05-.04Z"/>
        <path class="cls-5" d="M94.81,98.44s0-.03,0-.04c-.01-.07-.02-.13-.03-.19,0,.26.03.49.08.69.04.11.08.22.13.32,0,0,0,0,0,0,.03.06.07.1.12.14.01,0,.03,0,.04,0-.19-.17-.3-.49-.33-.91Z"/>
        <path class="cls-5" d="M95.17,99.38s-.01-.02-.02-.03c0,0-.01,0-.02,0,.01,0,.02.02.03.03Z"/>
        <path class="cls-5" d="M96.62,97.31c-.11.45-.26.83-.43,1.14.17-.31.33-.72.45-1.19.31-1.22.16-2.17-.17-2.25-.02,0-.03,0-.05,0,.34.09.51,1.05.2,2.3Z"/>
        <path class="cls-5" d="M95.42,99.36c.1,0,.2-.04.3-.12-.11.07-.23.1-.33.08l.02.04Z"/>
        <path class="cls-5" d="M95.38,96.08c-.1.18-.18.38-.25.59-.02.08-.05.16-.07.24,0,.02-.01.05-.02.07,0,.02,0,.03-.01.05-.06.32-.07.62-.07.76.02-.29.07-.59.15-.91.07-.29.16-.55.26-.79Z"/>
        <path class="cls-5" d="M95.38,96.08c.12-.21.25-.4.38-.56.13-.2.27-.35.4-.43.09-.08.15-.14.21-.19-.02,0-.05,0-.07,0-.16.13-.44.39-.72.77-.07.13-.13.26-.19.41Z"/>
        <path class="cls-5" d="M95,98.26c-.03-.16-.03-.3-.04-.38,0,0,0-.04,0-.09-.03.33-.02.62.03.87.06.19.13.38.23.55.05.05.11.09.17.11,0,0,0,0,.01,0l-.04-.06s0,0,0-.01c-.21-.05-.35-.43-.36-.98Z"/>
        <path class="cls-5" d="M95.22,99.21c-.11-.11-.19-.31-.23-.55-.03-.09-.06-.19-.08-.28-.01-.07-.02-.13-.03-.19,0,.12,0,.23.02.34.08.32.2.58.31.77.02.02.05.03.07.04h0s-.03-.09-.05-.12Z"/>
        <path class="cls-5" d="M96.11,94.98c-.23.14-.46.45-.67.86.04-.06.08-.11.12-.17.17-.32.36-.56.54-.69Z"/>
        <path class="cls-5" d="M79.43,92.32c-.2-.05-.42.14-.49.43s.03.56.23.61.42-.14.49-.43-.03-.56-.23-.61Z"/>
        <path class="cls-5" d="M79.14,93.48c-.26-.06-.39-.4-.3-.75s.37-.58.62-.52c.19.05.32.25.33.49.01-.03.04-.06.05-.09.01-.02.01-.04.03-.06-.05-.23-.18-.41-.38-.46-.31-.08-.66.19-.76.61s.07.81.38.89c.21.05.42-.06.58-.26,0-.07,0-.14,0-.21-.12.25-.34.4-.55.35Z"/>
        <path class="cls-5" d="M79.81,92.95c.02-.07.05-.14.08-.21,0-.06-.01-.12-.02-.17-.01.02-.02.03-.03.05-.02.04-.04.09-.06.13,0,.07,0,.14-.02.21-.01.04-.03.08-.05.11,0,.08,0,.15,0,.23.03-.04.05-.09.08-.14,0-.07,0-.14.02-.21Z"/>
        <path class="cls-5" d="M79.88,92.89s0,0,0,0c0,.03,0,.06,0,.09,0,0,0,0,0,0,0-.03,0-.06,0-.09Z"/>
        <path class="cls-5" d="M79.78,92.75s0-.03,0-.05c-.03.07-.06.14-.08.22-.02.07-.01.14-.01.21,0-.02.02-.04.02-.06,0-.07,0-.14.02-.21.01-.04.04-.08.05-.12Z"/>
      </g>
      <g>
        <polyline class="cls-1" points="98.41 106.19 65.51 109.54 65.32 98.64 96.31 96.53 98.41 107.06"/>
        <polygon class="cls-1" points="58.88 102.64 63.76 102.83 61.37 132.1 48.55 131.24 59.07 104.74 58.88 102.64"/>
        <polygon class="cls-1" points="61.56 104.64 63.85 132.1 74.57 130.28 65.96 104.45 61.56 104.64"/>
        <rect class="cls-1" x="58.24" y="98.35" width="9.37" height="11.77" rx="2.78" ry="2.78"/>
      </g>
      <path class="cls-1" d="M96.19,30.4l5.24-13.38c.4-1.02-.11-2.19-1.13-2.59l-19.57-7.66c-1.02-.4-2.19.11-2.59,1.13l-5.09,12.99c-6.1-1.74-10.4-2.22-11.37-1.42-.87.71,5.96,8.01,19.19,11.33,11.32,2.84,21.19,6.09,21.72,4.99.46-.95-2.09-2.99-6.41-5.39Z"/>
    </g>
  </g>
</svg>