<?xml version="1.0" encoding="UTF-8"?>
<svg id="Layer_2" data-name="Layer 2" xmlns="http://www.w3.org/2000/svg" viewBox="0 0 223.3 65.4">
  <defs>
    <style>
      .cls-1 {
        fill: #45589c;
        opacity: .81;
        stroke-width: 0px;
      }
    </style>
  </defs>
  <g id="Layer_1-2" data-name="Layer 1">
    <g>
      <path class="cls-1" d="M0,22.14c7.04-2.55,14.08-5.1,21.33-7.72-.98-.94-1.76-1.75-2.61-2.5-.61-.54-.49-.78.23-1.02,1.17-.39,2.31-.85,3.72-1.38-1.33-1.26-2.52-2.43-3.77-3.54-.78-.69-.74-.96.29-1.32C23.3,3.2,27.39,1.67,31.47.15c.65-.24,1.13-.2,1.65.31,2.42,2.34,4.87,4.67,7.35,6.95.77.71.6.98-.3,1.26-1.12.35-2.22.81-3.44,1.26,1.51,1.53,2.92,2.97,4.42,4.49-1.24.47-2.42.94-3.62,1.36-.64.22-.71.44-.24.97,1.44,1.63,1.62,1.7,3.74.94,2.14-.77,4.28-1.56,6.41-2.35.59-.22,1.08-.34,1.66.22,5.29,5.05,10.61,10.07,15.92,15.1.06.06.09.16.18.34-1.45.56-2.89,1.11-4.34,1.67,1.47,1.51,2.88,2.96,4.36,4.49-1.47.55-2.89,1.08-4.38,1.63,1.47,1.46,2.91,2.9,4.51,4.48-3.45,1.27-6.68,2.46-9.91,3.65-3.43,1.26-6.85,2.54-10.3,3.73-1.13.39-.95.72-.21,1.34.75.64,1.44,1.36,2.34,2.21-1.58.61-2.96,1.14-4.32,1.66,1.14,1.22,2.24,2.5,3.46,3.64.84.79.57,1.04-.32,1.36-3.97,1.43-7.95,2.86-11.89,4.35-1,.38-1.63.15-2.38-.56C21.49,54.85,11.13,45.07.77,35.28c-.24-.22-.51-.4-.77-.6,0-.1,0-.19,0-.29,1.24-.42,2.49-.83,3.73-1.28.28-.1.96-.23.44-.71C2.8,31.14,1.69,29.59,0,28.69,0,28.6,0,28.5,0,28.41c1.49-.58,2.99-1.17,4.62-1.81C2.98,25.11,1.64,23.6,0,22.42,0,22.33,0,22.23,0,22.14ZM34.04,20.26c-2.34-2.22-4.48-4.23-6.6-6.27-.45-.44-.83-.41-1.39-.19-3.15,1.19-6.33,2.31-9.49,3.47-4.72,1.72-9.44,3.45-14.25,5.22.29.32.49.58.72.8,9.87,9.33,19.74,18.65,29.59,28,.68.64,1.25.62,2.04.32,2.57-.98,5.16-1.92,7.75-2.85,2.68-.96,2.69-.95.59-2.95-1.91-1.82-3.83-3.64-5.92-5.62,8.78-3.21,17.32-6.34,25.95-9.5-.21-.27-.31-.42-.44-.55-3.8-3.59-7.8-6.99-11.33-10.82-2.35-2.55-4.44-3.16-7.54-1.54-2.26,1.18-4.8,1.84-7.4,2.8,2.49,2.35,4.77,4.55,7.11,6.7.75.69.63,1-.26,1.32-4.06,1.45-8.13,2.91-12.17,4.43-.85.32-1.38.17-2.01-.44-2.21-2.15-4.48-4.25-6.72-6.37-1.28-1.21-1.27-1.2.36-1.79,3.73-1.36,7.46-2.73,11.41-4.17ZM2.25,34.86c1.59,1.5,3.07,2.9,4.55,4.29,8.44,7.99,16.9,15.97,25.31,24,.96.91,1.76,1.14,2.99.61,2-.85,4.09-1.51,6.13-2.27,1.19-.44,2.35-.94,3.53-1.42-.6-1.23-1.85-1.84-2.67-2.85-.54-.66-1.12-.7-1.88-.41-1.9.74-3.85,1.34-5.73,2.13-1.11.47-1.84.34-2.73-.5-8-7.63-16.05-15.21-24.08-22.81q-2.27-2.15-5.42-.78ZM45.07,53.92c-1.27-1.2-2.35-2.19-3.39-3.22-.45-.44-.85-.24-1.3-.08-2.05.76-4.11,1.47-6.14,2.27-.96.38-1.61.25-2.39-.49-8.22-7.83-16.52-15.57-24.69-23.45-1.34-1.29-2.4-1.43-3.93-.71-.85.4-.85.63-.2,1.23,2.13,1.96,4.21,3.97,6.32,5.96,7.73,7.31,15.46,14.62,23.18,21.93.45.43.84.86,1.6.58,3.55-1.33,7.11-2.63,10.92-4.03ZM20.27,5.41c2.31,2.18,4.51,4.26,6.71,6.34.37.35.73.32,1.17.15,3.29-1.21,6.59-2.41,9.89-3.6.69-.25.97-.48.27-1.12-1.96-1.8-3.88-3.64-5.8-5.48-.38-.37-.76-.52-1.27-.33-3.6,1.33-7.2,2.65-10.97,4.04ZM39.31,40.5c1.11,1.05,2.12,1.92,3.02,2.89.64.69,1.24.64,2.02.34,3.19-1.21,6.4-2.38,9.61-3.55,3-1.1,6-2.2,8.88-3.25-1.06-1.14-2.06-2.21-3.04-3.3-.47-.52-.93-.27-1.42-.09-6.28,2.3-12.56,4.59-19.07,6.97ZM42.57,49.85c1.04.45,1.58.04,2.14-.16,5.35-1.93,10.68-3.9,16.03-5.84,2.42-.88,2.43-.85.53-2.65-.31-.29-.66-.56-.92-.89-.66-.83-1.38-.91-2.36-.53-3.54,1.36-7.11,2.64-10.67,3.96-1.01.37-2.65.45-2.85,1.24-.22.87,1.27,1.55,2.02,2.3.56.55.8.88-.2,1.19-1.15.35-2.27.84-3.71,1.39ZM23.26,25.33c1.19,1.14,2.22,2.1,3.23,3.09.38.38.78.47,1.28.28,1.82-.67,3.64-1.33,5.46-1.98.58-.21.65-.49.21-.9-.93-.88-1.88-1.73-2.79-2.62-.38-.37-.75-.3-1.17-.15-1.99.73-3.99,1.46-6.23,2.27ZM39.05,14.06c-1.27-1.2-2.39-2.26-3.51-3.33-.29-.28-.56-.21-.9-.08-1.81.69-3.63,1.36-5.46,2.01-.58.2-.87.37-.27.92.91.83,1.8,1.68,2.67,2.55.35.35.73.42,1.16.26,2-.73,3.99-1.48,6.32-2.34ZM31.52,28.48c.63.56,1.08.97,1.55,1.36.35.3.62.87,1.1.8,1.02-.14,2.21-.37,2.79-1.11.35-.46-.85-1.02-1.29-1.6-.46-.61-1.01-.73-1.72-.39-.67.32-1.39.54-2.43.94ZM33.23,23.61c1.75,2.44,2.73,2.63,5.26.99-2.55-2.69-1.7-2.57-5.26-.99ZM26.02,12.52c-.45-.38-.86-.69-1.23-1.04-1.08-1.02-2.82-1.08-3.97-.12-.1.08-.23.2-.24.31-.07.42,2.14,2.23,2.57,2.07.91-.34,1.89-.53,2.88-1.21ZM41.9,27.77c-2.34-2.57-2.75-2.64-5.32-.96,2.5,2.66,1.65,2.59,5.32.96ZM32.37,31.14c-.32-.67-1.02-1.05-1.5-1.62-.84-1.02-1.82-.34-2.36.13-.73.63.44.86.71,1.3.22.35.58.62.92.87.43.31,2.17-.21,2.23-.68ZM33.13,17.4c2.11,2.55,2.51,2.67,4.33,1.39q-2.07-2.3-4.33-1.39ZM35.09,21.36c-1.01-.1-2.18.28-3.25,1.07,1.02.21,2.35-.22,3.25-1.07Z"/>
      <path class="cls-1" d="M155.55,54.5c-1.16,1.78-2.86,1.71-4.64,1.82-1.82.11-3.03-.53-4.18-1.82-.68-.77-1.05-1.47-.99-2.51.08-1.56.21-3.16-.02-4.69-.36-2.36,1.22-3.51,2.61-4.83.18-.17.51-.21.79-.25.28-.04.57-.01.85,0,2.12.04,4.43-.58,5.94,2.08.25-1.11-.24-2.24,1.32-2.12,1.82.14,1.83,0,1.83,1.88,0,4.75,0,9.5,0,14.24,0,1.81-2.27,4.07-4.09,4.08-1.28,0-2.59-.16-3.84.04-1.98.3-3.2-.67-4.37-2.02-.56-.65-.51-1.36-.32-2,.19-.63.9-.29,1.38-.32.79-.04,1.78-.33,1.83,1.02,0,.11.15.26.27.31,1.54.71,3.19.47,4.72.19,1.13-.21,1.32-1.44,1.22-2.57-.06-.75-.01-1.5-.01-2.25-.1-.09-.2-.18-.3-.26ZM148.92,49.28c0,.61,0,1.23,0,1.84,0,1.66.74,2.27,2.38,2.43,1.6.16,2.68-.46,3.66-1.62.72-.86,1.39-4.02.71-4.87-.65-.82-1.3-1.84-2.44-2.03-3.46-.59-4.31.17-4.31,3.69,0,.19,0,.38,0,.57Z"/>
      <path class="cls-1" d="M75.75,22.78c0-2.85.03-5.69-.02-8.54-.01-.91.26-1.22,1.21-1.2,3.23.06,6.46.02,9.68.03,1.53,0,3.95,2.43,3.98,3.97.02,1.19-.1,2.38.03,3.55.17,1.52-.47,2.54-1.47,3.61-1.04,1.11-2.13,1.53-3.61,1.44-1.7-.11-3.42.03-5.12-.05-1.03-.05-1.45.23-1.39,1.33.09,1.56-.02,3.13.04,4.69.03.86-.21,1.25-1.11,1.13-.37-.05-.76-.05-1.14,0-.91.12-1.11-.31-1.1-1.14.04-2.94.02-5.88.02-8.82ZM82.75,15.87c-.9,0-1.8.03-2.7-.01-.72-.04-1.01.2-.99.96.05,1.66.04,3.31,0,4.97-.02.74.24,1,.98.98,1.85-.04,3.7.02,5.54-.02,1.11-.02,1.73-.65,1.74-1.78.01-1.09.03-2.18,0-3.27-.04-1.18-.66-1.82-1.87-1.83-.9,0-1.8,0-2.7,0Z"/>
      <path class="cls-1" d="M112.97,20.77c1.56-2.9,4.21-1.92,6.53-1.98,1.03-.02,3.18,2.7,3.19,3.78,0,1.57-.21,3.17.05,4.69.4,2.35-.9,3.7-2.4,5.07-.4.36-.82.41-1.3.41-1.33,0-2.68-.12-3.99.03-1.96.22-3.44-.34-4.69-1.91-.59-.75-.97-1.4-.96-2.38.04-4.65.05-9.31,0-13.96-.01-1.21.05-1.87,1.61-1.84,1.42.03,1.75.44,1.68,1.78-.11,2.02-.03,4.05-.03,6.07.1.08.21.17.31.25ZM119.54,25.84c0-.62-.07-1.24.01-1.84.15-1.09-.3-2-1.22-2.32-.98-.34-2.26-.55-3.12.14-1.48,1.19-3.11,2.42-2.57,4.77.1.45,0,.94.02,1.42.03,1.23.77,1.99,2.03,2.01,4.22.07,5.08.36,4.85-4.18Z"/>
      <path class="cls-1" d="M128.95,34.4c0,6.84-.04,13.67.04,20.51.02,1.37-.6,1.37-1.62,1.38-1.04,0-1.61-.05-1.6-1.4.05-13.58.06-27.16,0-40.74,0-1.49.67-1.39,1.7-1.44,1.15-.06,1.54.24,1.53,1.46-.06,6.74-.03,13.48-.03,20.23Z"/>
      <path class="cls-1" d="M117.85,50.32c-1.14,0-2.28-.05-3.42.02-.54.03-1.42-.46-1.47.73-.04,1.11.04,2.24,1.36,2.42,1.35.18,2.75.06,4.13.03.59-.01,1-.51,1.12-.96.43-1.54,1.63-.64,2.46-.84.34-.08.79-.08.87.47.12.85-.18,1.48-.74,2.16-1.25,1.52-2.71,2.22-4.69,1.94-.84-.12-1.72-.11-2.56,0-1.71.23-2.96-.36-4.1-1.65-.74-.84-1.16-1.62-1.11-2.76.09-1.89.02-3.8.03-5.7,0-1.74,2.28-3.97,4.04-3.98,1.38,0,2.76,0,4.13,0,1.17,0,2.15.12,3.24.95,2.43,1.84,1.68,4.29,1.77,6.61.03.65-.52.56-.93.56-1.38,0-2.76,0-4.13,0ZM116.33,47.89c.62,0,1.23.04,1.85-.01.62-.05,1.51.36,1.52-.87,0-1.09-.38-1.92-1.49-2.03-1.22-.13-2.46-.1-3.69-.01-1.14.08-1.53.86-1.58,1.95-.06,1.34.87.93,1.54.97.61.04,1.23,0,1.85,0Z"/>
      <path class="cls-1" d="M218.29,50.32c-1.19,0-2.37-.03-3.56.01-.57.02-1.4-.37-1.43.79-.03,1.08.09,2.17,1.29,2.35,1.39.2,2.84.07,4.26.03.46-.01.85-.42.95-.78.5-1.81,1.99-1.11,2.9-.92.9.19.66,1.42.19,1.98-1.17,1.38-2.28,2.96-4.54,2.51-.87-.17-1.81-.13-2.7,0-2.01.27-3.55-.31-4.79-1.98-.51-.69-.85-1.27-.82-2.14.06-1.99.01-3.98.02-5.97,0-1.71,2.3-3.98,4.03-3.98,1.52,0,3.04.08,4.55-.03,1.31-.09,2.18.41,3.12,1.28,1.15,1.07,1.69,2.2,1.49,3.74-.06.47-.07.96,0,1.42.2,1.34-.25,1.9-1.68,1.73-1.08-.12-2.18-.02-3.27-.02ZM216.69,47.89c.61,0,1.23.04,1.84-.01.61-.05,1.5.39,1.5-.86,0-1.08-.33-1.92-1.46-2.04-1.22-.12-2.46-.1-3.68,0-1.13.08-1.55.85-1.59,1.94-.05,1.31.87.94,1.55.98.61.03,1.23,0,1.84,0Z"/>
      <path class="cls-1" d="M170.51,50.32c-1.14,0-2.28-.03-3.42.01-.62.03-1.51-.38-1.51.87,0,1.07.08,2.14,1.34,2.29,1.36.16,2.75.05,4.13.02.53,0,.82-.46,1.09-.83.53-.74,2.46-1.42,3.05-.88.6.56.53,1.41,0,2.03-1.24,1.43-2.45,2.9-4.73,2.45-.91-.18-1.91-.13-2.84,0-1.82.24-3.15-.39-4.31-1.79-.61-.74-.99-1.39-.95-2.38.07-1.8.09-3.61,0-5.41-.06-1.19.37-1.98,1.14-2.87,1.14-1.32,2.39-1.83,4.1-1.66,1.32.13,2.66.06,3.99.01.76-.03,1.3.25,1.9.72,1.69,1.32,2.24,2.94,2.08,5.06-.18,2.34-.04,2.35-2.33,2.35-.9,0-1.8,0-2.71,0ZM168.93,47.89c.66,0,1.33.04,1.98-.01.57-.05,1.4.37,1.42-.79.03-1.08-.3-1.96-1.4-2.09-1.3-.16-2.66-.16-3.96,0-1.08.13-1.47,1-1.44,2.08.03,1.26.97.73,1.56.81.61.07,1.23.02,1.84.02Z"/>
      <path class="cls-1" d="M132.21,37.39c0-5.79.04-11.58-.03-17.37-.02-1.32.62-1.34,1.56-1.28.84.06,1.76-.34,1.75,1.22-.06,11.67-.06,23.35,0,35.02,0,1.65-.97,1.2-1.84,1.29-1.07.11-1.48-.19-1.47-1.38.07-5.84.03-11.67.03-17.51Z"/>
      <path class="cls-1" d="M181.78,44.31c.63-.11.9-.54,1.17-.88.77-.98,1.75-1.18,2.97-1.28,2-.16,3.42.51,4.68,2.01.65.78,1.04,1.47,1.02,2.51-.07,2.8-.09,5.61,0,8.41.05,1.57-.97,1.15-1.8,1.2-.85.06-1.55.09-1.5-1.19.1-2.61,0-5.22.05-7.84.02-.88-.11-1.74-.97-2.01-1.01-.31-2.12-.51-3.1.29-1.69,1.39-2.81,2.95-2.42,5.34.23,1.39,0,2.84.06,4.27.04.86-.23,1.17-1.12,1.14-2.59-.07-2.11.19-2.12-2.12-.03-3.56.04-7.13-.04-10.69-.03-1.15.42-1.38,1.41-1.29.87.07,1.95-.25,1.67,1.29-.05.25.02.53.04.83Z"/>
      <path class="cls-1" d="M86.18,44.52c.43-.39.71-.57.9-.82.93-1.28,2.17-1.52,3.71-1.55,1.62-.02,2.72.5,3.84,1.63.95.97,1.34,1.91,1.29,3.24-.09,2.7-.1,5.41,0,8.11.05,1.5-.92,1.09-1.69,1.12-.79.03-1.59.21-1.54-1.13.1-2.65-.01-5.31.05-7.97.02-.99-.32-1.8-1.17-2.03-.9-.24-1.96-.44-2.83.32-1.67,1.44-2.9,3.01-2.49,5.47.23,1.38.02,2.84.05,4.26.02.75-.16,1.1-1.02,1.11-2.22.04-2.21.09-2.21-2.17,0-3.46.02-6.93-.01-10.39,0-.93-.05-1.66,1.29-1.55,1.07.08,2.06-.02,1.77,1.53-.03.17.04.37.09.81Z"/>
      <path class="cls-1" d="M194.67,49.15c0-.85.06-1.72-.02-2.56-.1-1.09.36-1.81,1.04-2.63,1.18-1.41,2.53-2.01,4.33-1.77.65.09,1.35.13,1.99,0,2.44-.52,3.9.91,5.27,2.54.65.78.69,1.98.14,2.47-.68.6-1.88.29-2.86.11-.09-.02-.19-.22-.2-.34-.02-1.84-1.24-1.98-2.64-1.91-.57.03-1.14,0-1.71,0-1.49.03-2.03.57-2.04,2.07-.01,1.42,0,2.85,0,4.27,0,.33-.06.72.09.98,1.09,1.93,2.96.9,4.5,1.11.95.13,1.5-.52,1.74-1.34.14-.49-.02-1.12.79-1.05.83.08,1.9-.42,2.41.29.39.55.44,1.59-.16,2.26-1.34,1.53-2.64,3.15-5.08,2.62-.68-.15-1.43-.11-2.13,0-1.93.29-3.34-.39-4.56-1.89-.61-.75-.99-1.42-.92-2.39.07-.94.02-1.9.02-2.85Z"/>
      <path class="cls-1" d="M102.74,30.67c-.28.12-.4.13-.44.19-1.46,2.33-3.79,1.92-5.99,1.85-1-.03-3.25-2.56-3.26-3.57-.02-3.13.03-6.27-.02-9.4-.03-1.47,1-.93,1.68-.97.7-.05,1.55-.3,1.51,1-.07,2.66.02,5.32-.04,7.98-.02.97.25,1.81,1.12,2.07.91.27,1.98.47,2.84-.27,1.65-1.41,3.08-2.86,2.61-5.4-.26-1.42,0-2.94-.06-4.41-.07-1.47,1-.92,1.67-.97.7-.05,1.53-.31,1.51,1-.06,3.94-.05,7.88,0,11.82.01.99-.36,1.26-1.24,1.14-.77-.11-1.98.48-1.8-1.15.03-.27-.05-.54-.09-.92Z"/>
      <path class="cls-1" d="M138.99,25.74c0-.52.09-1.06-.02-1.56-.5-2.32.87-3.7,2.39-5.06.41-.37.84-.37,1.32-.37,1.19,0,2.4.16,3.56-.03,2.33-.4,3.88.68,5.19,2.38.14.19.37.37.4.57.11.7.36,1.71-.16,2.02-.77.46-1.83.23-2.77.08-.08-.01-.19-.21-.2-.33-.09-1.89-1.39-1.98-2.81-1.92-.62.02-1.24-.03-1.85.01-1.16.07-1.84.71-1.88,1.87-.05,1.56-.03,3.13,0,4.7.01,1.22.7,1.8,1.87,1.85.81.03,1.62-.02,2.42.01,1.25.05,2.16-.34,2.24-1.75.05-.88.71-.66,1.15-.6.68.09,1.7-.52,1.99.43.29.92.14,1.85-.64,2.74-1.28,1.47-2.67,2.27-4.67,1.98-.93-.14-1.9-.1-2.84,0-1.4.15-2.37-.37-3.34-1.37-.97-1-1.5-1.98-1.33-3.36.09-.75.02-1.52.02-2.28Z"/>
      <path class="cls-1" d="M100.39,49.42c0-1.04-.05-2.09.01-3.13.06-.93-.17-1.49-1.23-1.31-1.11.19-1.33-.31-1.33-1.34,0-1.05.2-1.64,1.39-1.44.94.16,1.3-.26,1.2-1.19-.06-.56.06-1.15-.02-1.7-.18-1.29.29-1.68,1.61-1.67,1.26,0,1.6.33,1.56,1.59-.1,2.94-.03,2.99,2.92,2.95,1.09-.01,1.36.32,1.35,1.37-.01,1.05-.2,1.49-1.4,1.46-2.9-.07-2.9,0-2.9,2.84,0,1.14,0,2.28,0,3.41,0,1.7.57,2.24,2.32,2.25.19,0,.38.03.57,0,1.16-.2,1.41.33,1.41,1.42,0,1.05-.27,1.5-1.36,1.35-.42-.06-.87-.09-1.28,0-2.34.51-3.49-1.23-4.59-2.67-.7-.91-.14-2.3-.23-3.47-.02-.24,0-.47,0-.71Z"/>
      <path class="cls-1" d="M75.91,46.37c0-2.85.04-5.7-.02-8.55-.02-.99.25-1.31,1.26-1.28,2.55.09,2.09-.17,2.1,2.15.02,5.41-.05,10.83.04,16.24.03,1.58-.86,1.3-1.8,1.35-1.01.05-1.68.03-1.62-1.36.12-2.84.04-5.7.04-8.54Z"/>
      <path class="cls-1" d="M139.47,49.08c0-1.94.05-3.88-.02-5.82-.05-1.55,1.06-.96,1.77-1.03.75-.08,1.48-.18,1.45,1.07-.07,3.97-.07,7.95,0,11.93.02,1.42-.91,1.02-1.63,1.04-.74.02-1.66.32-1.6-1.07.09-2.03.02-4.07.02-6.1Z"/>
      <path class="cls-1" d="M177.59,29.29c0,.52.05,1.05,0,1.57-.13,1.18-1.01,1.93-2.25,1.92-1.23-.02-2.13-.52-2.34-1.83-.08-.51-.03-1.04-.04-1.56-.01-1.09-.64-1.61-1.64-1.47-.98.13-1.53.6-.96,1.77.36.73-.28,1.79.73,2.41.23.14.05.52-.3.63-.34.1-.66.05-.95-.14-.5-.32-1.08-3.56-.77-4.27.45-1.03,1.93-1.64,3.18-1.26,1.15.35,1.9,1.05,1.83,2.37-.02.47-.03.96.04,1.42.1.65.52,1,1.19.99.67-.01,1.11-.34,1.09-1.04-.03-.93.26-1.89-.22-2.79-.24-.45-.26-.85.39-.9.47-.04,1.01-.11,1.03.62.01.52,0,1.04,0,1.57,0,0,0,0-.01,0Z"/>
      <path class="cls-1" d="M187.48,29.44c0,.43.02.85,0,1.28-.05,1.31-.85,2.06-2.19,2.06-1.34,0-2.21-.73-2.31-2-.05-.57.03-1.15-.05-1.7-.15-1.01-.91-1.32-1.79-1.15-.83.17-1.39.59-.84,1.62.41.77-.32,1.91.79,2.54.24.13.03.53-.31.6-.38.08-.75.06-1.07-.22-.3-.25-.93-3.59-.71-4.04.53-1.14,1.51-1.52,2.69-1.46,1.47.08,2.35.96,2.46,2.43.03.42,0,.85.02,1.28.04.73.4,1.16,1.16,1.15.68-.01,1.08-.42,1.07-1.08-.02-.93.27-1.89-.22-2.79-.2-.37-.25-.77.32-.85.46-.06,1-.14,1,.61,0,.57,0,1.14,0,1.71Z"/>
      <path class="cls-1" d="M216.83,27.26c-.23.38-.4.7-.62,1-.38.53-.7.88.16,1.41.85.53.31,1.76.79,2.61.19.34-.41.35-.73.38-.67.07-.84-.32-.76-.87.16-1.13-.31-1.49-1.43-1.47-1.08.02-1.4.37-.99,1.35.13.31.37.67-.02.87-.47.24-1.06.25-1.51,0-.49-.26.02-.6.08-.92.23-1.19.43-2.43-.11-3.59-.22-.48-.36-.84.28-.92.42-.06,1.02-.23,1.11.5.04.28,0,.57.02.85.02.36-.1.8.46.88.42.06.74-.09.96-.45.25-.4.53-.79.78-1.19.34-.57.78-.76,1.52-.45Z"/>
      <path class="cls-1" d="M210.27,29.63c0,.33,0,.67,0,1-.01,1.9-.88,2.52-2.74,1.92-.5-.16-.92-.39-1.43.04-.2.17-.67.18-.94-.06-.34-.29.01-.56.08-.86.28-1.2.34-2.42-.02-3.62-.08-.26-.34-.5-.11-.77.24-.29.61-.2.94-.18.44.02.52.32.52.69,0,.86,0,1.71,0,2.57,0,1.05.68,1.41,1.56,1.47,1.11.08,1.04-.76.99-1.47-.06-.83.25-1.69-.27-2.5-.27-.42-.06-.74.45-.76.41-.01.93-.12.95.53.03.66,0,1.33,0,1.99h0Z"/>
      <path class="cls-1" d="M223.23,29.63c0,.1,0,.19,0,.29,0,2.95-.41,3.25-3.24,2.4-.09-.03-.17-.11-.26-.12-1.28-.07-1.21-.07-1.24-1.39-.03-1,.38-2.07-.38-3.01-.26-.32-.03-.65.4-.68.47-.03,1.01-.11,1.02.62,0,.81.03,1.62,0,2.42-.03,1.16.63,1.66,1.67,1.67,1.14,0,1.06-.91,1.01-1.66-.04-.73.28-1.51-.29-2.18-.3-.35-.36-.73.19-.85.43-.09,1.03-.24,1.1.49.06.66.01,1.33.01,1.99,0,0,0,0,.01,0Z"/>
      <path class="cls-1" d="M167.48,24.7c.02,2.03.04,4.07.06,6.1,0,1.16-.68,1.75-1.73,1.89-1.17.15-2.34.05-2.87-1.25-.5-1.23.05-2.62-.53-3.89-.18-.39.36-.43.69-.45.44-.02.73.13.72.64,0,.8,0,1.61,0,2.41.02.95.28,1.73,1.44,1.68,1.08-.04,1.26-.81,1.27-1.69.02-1.32.04-2.65.06-3.97,0-.41,0-.83,0-1.24-.05-.08-.04-.16,0-.23.29,0,.58,0,.87,0Z"/>
      <path class="cls-1" d="M195.85,26.96c.88,0,1.59.23,2.09.88.2.27.32.65-.03.88-.3.19-.53-.04-.67-.32-.21-.44-.61-.58-1.05-.6-.44-.02-.9-.01-1.01.54-.09.47.27.68.63.83.52.22,1.07.39,1.59.61.58.25.86.72.85,1.35-.02.69-.35,1.18-.99,1.42-1.12.42-2.15.26-3.04-.56-.26-.24-.37-.61-.08-.88.27-.26.52-.04.67.23.24.43.66.53,1.09.58.48.06,1.03.04,1.17-.53.13-.54-.36-.69-.77-.84-.36-.13-.7-.3-1.06-.42-.88-.29-1.4-.86-1.22-1.81.19-1.02,1-1.29,1.83-1.37Z"/>
      <path class="cls-1" d="M141.03,40.38c-1.31,0-2.05-.71-2.04-1.96.01-1.21.81-1.95,2.09-1.93,1.18.02,1.96.77,1.97,1.91.01,1.25-.74,1.98-2.03,1.98Z"/>
      <path class="cls-1" d="M135.84,14.99c0,1.21-.84,2.01-2.06,1.98-1.16-.03-1.95-.81-1.97-1.94-.02-1.26.75-2.04,2-2.04,1.27,0,2.04.75,2.03,2Z"/>
      <path class="cls-1" d="M204.03,30.24c-.04.74-.35,1.65-1.34,2.19-1,.54-2.01.45-2.98-.07-.29-.15-.62-.33-.44-.76.23-.52.52-.17.79-.04.89.42,1.77.52,2.43-.35.63-.83.63-1.79.03-2.64-.63-.89-1.51-.82-2.41-.41-.28.13-.59.47-.82,0-.24-.5.22-.65.53-.82,2.01-1.13,4.24.25,4.21,2.91Z"/>
      <path class="cls-1" d="M192.02,32.67c-.64-.05-1.42.2-.73-1.03.49-.87.33-2.08.06-3.07-.27-.99-1.14-.77-1.88-.42-.27.12-.58.51-.82.03-.2-.39.15-.6.44-.77.82-.45,1.67-.67,2.57-.21.85.44.91,1.21.96,2.06.05.92-.19,1.83.28,2.77.37.74-.45.57-.87.64Z"/>
      <path class="cls-1" d="M223.21,34.65c.11,1.03-.11,1.7-1.12,1.75-.81.04-1.54-.1-1.58-1.16,0-.18-.05-.39-.15-.52-.22-.26-.79-.33-.48-.83.08-.14.42-.18.63-.17.48.02.77.31.87.79.02.09.02.19.03.28.01.34.05.72.48.73.48,0,.39-.42.45-.73.07-.4-.26-1.12.53-1.03.58.06.3.69.35.9Z"/>
      <path class="cls-1" d="M184.94,35.31c-.9-.04-1.7-.25-1.92-1.29-.06-.27-.1-.59.25-.72.26-.1.66-.17.77.11.58,1.5,1.61.94,2.58.6.27-.1.53-.29.71.07.16.34-.1.52-.36.65-.64.32-1.28.63-2.03.58Z"/>
      <path class="cls-1" d="M175.35,35.33c-1.32-.02-2.07-.32-2.34-1.31-.07-.27-.12-.59.23-.72.27-.1.67-.16.78.11.58,1.52,1.62.94,2.59.61.28-.09.53-.29.73.06.2.36-.11.52-.35.64-.63.33-1.28.62-1.64.61Z"/>
      <path class="cls-1" d="M166.61,24.94c0,.41,0,.83,0,1.24-.75-.03-1.51-.07-2.26-.09-.94-.02-1.23-.56-1.15-1.41.07-.66.69-.72.86-.37.65,1.28,1.63.74,2.55.63Z"/>
      <path class="cls-1" d="M222.23,25.03c.14-.47-.22-1.16.58-1.12.65.04.42.64.41,1.01,0,.41.25,1.09-.47,1.11-.81.03-.28-.73-.52-1Z"/>
      <path class="cls-1" d="M167.48,24.7c-.29,0-.58,0-.87,0,.29-.51.58-.49.87,0Z"/>
    </g>
  </g>
</svg>