<?xml version="1.0" encoding="UTF-8"?>
<svg id="Layer_2" data-name="Layer 2" xmlns="http://www.w3.org/2000/svg" viewBox="0 0 41.1 35.83">
  <defs>
    <style>
      .cls-1, .cls-2, .cls-3 {
        stroke: #7dad7d;
        stroke-width: .1px;
      }

      .cls-1, .cls-2, .cls-3, .cls-4, .cls-5 {
        stroke-miterlimit: 10;
      }

      .cls-1, .cls-4 {
        fill: #7dad7d;
      }

      .cls-2 {
        fill: none;
      }

      .cls-3, .cls-5 {
        fill: #638962;
      }

      .cls-6 {
        opacity: .6;
      }

      .cls-4, .cls-5 {
        stroke: #638962;
        stroke-width: .5px;
      }
    </style>
  </defs>
  <g id="Layer_1-2" data-name="Layer 1">
    <g>
      <rect class="cls-4" x="3.39" y="7.13" width="34.31" height="21.57" transform="translate(47.11 24.09) rotate(151.99)"/>
      <g>
        <ellipse class="cls-5" cx="14.1" cy="16.05" rx="2.38" ry="2.9" transform="translate(-5.88 8.5) rotate(-28.01)"/>
        <rect class="cls-5" x="14.06" y="19.05" width="8.11" height="9.81" rx=".94" ry=".94" transform="translate(45.37 36.59) rotate(151.99)"/>
        <rect class="cls-5" x="14.77" y="17.12" width="1.4" height="3.01" transform="translate(37.88 27.79) rotate(151.99)"/>
      </g>
      <rect class="cls-5" x="7.92" y="25.29" width="34.06" height="2.34" transform="translate(59.41 38.11) rotate(151.99)"/>
      <g>
        <path class="cls-5" d="M33.72,19.36l-.31-.59,2.35-1.25v-.02s-.63-.16-.63-.16c-1.66-.48-2.78-.88-3.29-1.85-.4-.75-.33-1.77.79-2.37.6-.32,1.24-.37,1.76-.26l.04.62c-.35-.07-.87-.1-1.34.15-.78.41-.78,1.04-.49,1.57.43.78,1.39,1.14,3.4,1.7l.84.24.23.43-3.33,1.77Z"/>
        <path class="cls-5" d="M28.36,15.39c1.06-.56,2.33,0,3.26,1.75.9,1.74.72,3.06-.3,3.6-1.16.61-2.34-.01-3.28-1.79-.88-1.66-.78-2.98.32-3.56ZM28.69,15.92c-.73.39-.61,1.41.07,2.69s1.5,1.99,2.23,1.61c.64-.34.65-1.33-.07-2.69-.76-1.42-1.61-1.94-2.23-1.61Z"/>
      </g>
      <g class="cls-6">
        <ellipse class="cls-5" cx="27.62" cy="12.09" rx="1.67" ry="1.85" transform="translate(-2.44 14.39) rotate(-28.01)"/>
        <ellipse class="cls-5" cx="26.11" cy="9.09" rx=".81" ry=".9" transform="translate(-1.21 13.32) rotate(-28.01)"/>
        <g>
          <polygon class="cls-2" points="26.96 10.86 28.11 11.79 28.28 13.29 27.05 12.38 26.96 10.86"/>
          <polygon class="cls-2" points="27.36 11.58 27.37 11.59 27.78 11.98 27.9 12.63 27.39 12.18 27.36 11.58"/>
        </g>
      </g>
      <g class="cls-6">
        <ellipse class="cls-5" cx="8.66" cy="22.62" rx="1.87" ry="2.08" transform="translate(-9.61 6.72) rotate(-28.01)"/>
        <g>
          <polygon class="cls-1" points="7.98 21.04 9.36 22.16 9.56 23.95 8.09 22.86 7.98 21.04"/>
          <polygon class="cls-3" points="8.46 21.91 8.47 21.92 8.96 22.39 9.1 23.15 8.49 22.62 8.46 21.91"/>
        </g>
      </g>
    </g>
  </g>
</svg>