<?xml version="1.0" encoding="UTF-8"?>
<svg id="Layer_2" data-name="Layer 2" xmlns="http://www.w3.org/2000/svg" viewBox="0 0 272.89 271.6">
  <defs>
    <style>
      .cls-1 {
        fill: #b8424c;
      }

      .cls-1, .cls-2, .cls-3, .cls-4 {
        stroke: #638962;
      }

      .cls-1, .cls-2, .cls-3, .cls-4, .cls-5 {
        stroke-miterlimit: 10;
      }

      .cls-1, .cls-3, .cls-4, .cls-5 {
        stroke-width: .3px;
      }

      .cls-2 {
        fill: #e7c79a;
        stroke-width: 4px;
      }

      .cls-3, .cls-5 {
        fill: #7dad7d;
      }

      .cls-4 {
        fill: #c6ae73;
      }

      .cls-5 {
        stroke: #fff;
      }
    </style>
  </defs>
  <g id="Layer_3" data-name="Layer 3">
    <g>
      <ellipse class="cls-2" cx="136.44" cy="135.8" rx="134.44" ry="133.8"/>
      <g>
        <path class="cls-4" d="M188.12,215.57c-26.48.04-52.96.09-79.45.13-7.09-4.54-9.95-9.33-11.17-13.13-2.26-7.03-.13-14.48-3.49-16.03-1.51-.7-2.31.61-4.8.29-4.75-.61-7.64-6.36-8.91-8.91-1.8-3.59-4.7-9.37-2.06-15.09,2.2-4.75,6.92-6.64,7.74-6.95,4.13-1.58,5.53.22,7.36-.98,5.77-3.8-.05-25.91,0-40.96,0-.81.1-5.05,3.52-8.47,2.17-2.17,5.17-3.53,8.48-3.53h82.78c6.6,0,12,5.4,12,12v89.63c0,6.6-5.4,12-12,12Z"/>
        <path class="cls-3" d="M201.53,103.64c-.2,1.23-.99,5.2-4.51,8.03-1.49,1.2-3.01,1.82-4.11,2.15-1.33.06-4.21,0-7.05-1.76-1.11-.69-1.94-1.47-2.55-2.15-.64.68-1.86,1.81-3.72,2.55-2.4.95-4.53.74-5.49.59-1.63.15-4.58.19-7.84-1.18-1.68-.7-2.98-1.59-3.92-2.35-.52.72-2.48,3.28-6.07,4.11-2.36.55-4.33.1-5.29-.2-.8-.53-2.21-1.31-4.11-1.57-3.44-.47-6.06,1.06-6.86,1.57-.68.54-6.46,5-13.91,3.13-5.96-1.49-8.96-6.03-9.6-7.05-.31,2.23-1.25,6.83-4.7,11.36-2.76,3.63-5.93,5.65-7.84,6.66-.1,1.92-.54,5.55-2.74,9.4-1.8,3.16-4.04,5.16-5.49,6.27.49.63,1.19,1.68,1.57,3.13.67,2.56-.07,4.7-.39,5.49-.12.71-1.38,7.27-7.64,10.38-5.19,2.58-10.12.94-11.04.62-1.3-.33-4.67-1.36-7.18-4.54-4.41-5.57-2.15-12.56-1.96-13.13-.45-.54-2.62-3.29-2.16-7.05.26-2.09,1.21-3.57,1.76-4.31-1.6-.65-6.42-2.83-9.6-8.23-3.85-6.54-2.49-13.07-2.15-14.5-.94-2.12-4.39-10.58-.98-20.18,1.89-5.32,5.1-8.78,7.05-10.58.41-1.79,1.06-3.94,2.15-6.27,1.65-3.51,3.68-6.09,5.29-7.84-.16.57-1.52,4.99-6.07,6.86-3.76,1.54-7.12.29-7.84,0-2.97-.31-5.3-2.74-5.49-5.68-.18-2.86,1.71-5.5,4.51-6.27-3.68-2.65-4.93-7.43-3.13-11.17,1.47-3.07,4.8-5.01,8.42-4.9-.2-.31-1.88-2.96-.78-6.07.83-2.36,2.94-4.09,5.49-4.51,1.9-1.58,3.25-1.72,4.11-1.57,1.9.34,3.04,2.36,3.92,1.96.44-.2.55-.89.59-1.37.8-1.2,2.64-3.59,5.88-4.9,6.73-2.72,13.07,1.82,13.52,2.16,1.88-3.06,5.2-4.42,7.84-3.53,2.05.7,3.04,2.55,3.33,3.13,5.48-3.89,12.08-3.91,15.87-.59,2.58,2.26,3.17,5.47,3.33,6.86,2.23-.9,5.37-1.87,9.21-2.16,6.65-.49,11.91,1.33,14.69,2.55,2.9,1.12,7.34,3.25,11.75,7.25,3.98,3.61,6.42,7.38,7.84,9.99,1.89.05,3.53.36,4.9.78,10.74,3.29,14.79,15.79,15.48,18.02,1.28,1.17,4.04,4.03,5.29,8.62.88,3.24.66,6.02.39,7.64,1.18,1.57,2.35,3.13,3.53,4.7,1.5,3.2,3,6.4,4.51,9.6Z"/>
        <path class="cls-1" d="M192.91,86c-6.72-2.59-21.67-7.24-39.67-3.3-14.04,3.07-23.6,9.65-27.56,13.06-6.19,5.34-14.3,13.48-21.68,24.95-7.4,11.49-11.45,22.28-13.75,30.14-.38.42-1.02,1-1.93,1.34-2.54.94-5.27-.68-5.88-1.18-4.2-3.4,5.82-22.97,8.36-27.82-1.94,2.39-4.51,5.96-6.79,10.71-2.79,5.81-3.62,10.24-5.75,10.32-1.88.07-3.74-3.31-4.44-4.57-.8-1.44-1.19-2.77-1.4-3.69,1.06-5.48,3.63-14.86,10.42-24.52,7.85-11.16,17.38-17.06,22.5-19.75,3.31.21,7.23.19,11.59-.36,7.33-.92,13.3-3.01,17.6-4.93-2.31.96-16.98,6.74-32.23-.82-10.85-5.38-15.81-14.45-17.37-17.63,4.15-1.5,12.53-3.92,23.12-2.61,10.58,1.3,18.12,5.67,21.78,8.13.91.91,1.83,1.83,2.74,2.74,1-2.69,2.63-6.04,4.86-6.17,3.13-.18,5.86,6.04,6.4,5.75.24-.13-.04-1.45-2.61-7.18,2.01-.2,5.19-.26,8.88.78,2.97.84,5.24,2.09,6.76,3.1,1.13-2.86,3.59-7.91,8.65-12.37,7.59-6.69,16.13-7.76,19.17-8,.2,2.5.29,7.75-2.32,13.62-2.55,5.75-6.39,9.17-8.36,10.71,3.66-1.65,7.31-3.31,10.97-4.96l6.27,3.13c.65,2.09,1.31,4.18,1.96,6.27-.1,1.71-.2,3.42-.29,5.13Z"/>
        <path class="cls-1" d="M135.15,149.24c0,6.02-4.37,14.33-10.58,14.11-5.6-.2-9.71-7.24-9.7-12.83,0-3.92,2.04-8.38,4.21-8.52,2.11-.14,2.81,3.9,5.58,4.11,3.2.24,4.85-4.95,7.25-4.51,2.01.37,3.23,4.46,3.23,7.64Z"/>
        <path class="cls-1" d="M185.94,150.43c0,6.02-4.37,14.33-10.58,14.11-5.6-.2-9.71-7.24-9.7-12.83,0-3.92,2.04-8.38,4.21-8.52,2.11-.14,2.81,3.9,5.58,4.11,3.2.24,4.85-4.95,7.25-4.51,2.01.37,3.23,4.46,3.23,7.64Z"/>
        <path class="cls-5" d="M187.94,91.66c4.87,1.68,7.28,6.97,6.17,17.44"/>
        <path class="cls-5" d="M144.08,39.58c8.42.28,14.71,6.8,17.95,22.26"/>
        <path class="cls-5" d="M86.28,44.61c5.14.19,8.99,4.55,10.97,14.89"/>
        <path class="cls-5" d="M108,30.93c5.14.19,8.99,4.55,10.97,14.89"/>
        <path class="cls-5" d="M59.89,105.39c-3.48-3.79-3.08-9.59,2.88-18.27"/>
      </g>
    </g>
  </g>
</svg>