<?xml version="1.0" encoding="UTF-8"?>
<svg id="Layer_2" data-name="Layer 2" xmlns="http://www.w3.org/2000/svg" viewBox="0 0 272.89 285.78">
  <defs>
    <style>
      .cls-1 {
        fill: #b8424c;
        stroke-width: .3px;
      }

      .cls-1, .cls-2, .cls-3, .cls-4 {
        stroke: #638962;
      }

      .cls-1, .cls-2, .cls-3, .cls-4, .cls-5 {
        stroke-miterlimit: 10;
      }

      .cls-6 {
        fill: none;
        stroke-width: 0px;
      }

      .cls-2 {
        fill: #e7c79a;
        stroke-width: 4px;
      }

      .cls-3, .cls-4, .cls-5 {
        stroke-width: .3px;
      }

      .cls-3, .cls-5 {
        fill: #7dad7d;
      }

      .cls-4 {
        fill: #c6ae73;
      }

      .cls-5 {
        stroke: #fff;
      }
    </style>
  </defs>
  <g id="Layer_3" data-name="Layer 3">
    <g>
      <path class="cls-2" d="M270.89,151.89c-3.01,175.88-265.9,175.85-268.89,0,3.01-175.87,265.9-175.84,268.89,0Z"/>
      <g>
        <rect class="cls-4" x="82.13" y="119.99" width="106.78" height="113.63" rx="12" ry="12"/>
        <path class="cls-3" d="M106.66,116.59c8.54,8.46,20.31,9.46,32.65,9.14,6.38,7.29,12.97,13.82,23.51,6.53,2.33,5.28,7.48,7.03,14.63,6.27-.03,4.68,2.24,8.2,9.14,9.4-.08,34.55,3.33,64.23-29.78,74.71-.24,7.16,7.4,5.68,15.67,15.41,8.06,6.07,15.18,5.47,21.94,2.35,11.85-9.28,8.56-10.9,24.55-4.96,21.64-11.29,19.3-51.25,7.05-70.79,7.65-7.66,6.31-14.08-3.4-19.33,8.64-14.36,5.95-31.38-4.18-50.15.7-16.21-6.81-18.76-16.46-17.76-1.29-11.79-7.15-14.75-15.67-12.54-2.65-7.83-6.86-13.7-17.24-11.75-4.93-6.03-12.83-6.54-21.16-6.27-5.01-.73-10.31-2.14-12.54,3.92-9,.2-15.93,3.91-20.9,10.97-5.25-2-10.22.3-14.89,7.05-7.45,2.69-9.6,6.83-6.01,12.54-5.12,2.47-8.33,6-7.05,12.02-9.74,2.12-13.4,7.04-10.19,15.15-13.9-2.06-21.45,2.16-20.11,15.15-16.47.35-20.3,10.35-19.33,24.03-12.64,8.85-15.58,17.82-7.84,26.9-8.95,6.35-10.24,12.27-4.18,17.76-13.06,9.8-7.72,15.97-1.31,21.94-1.05,8.43,1.03,13.82,9.4,13.06,2.85,10.84,10.68,10.72,20.11,7.05,7.21,5.01,14.28,9.22,18.81-.26,4.21,7.38,9.21,8.55,15.15,2.09,9.8,3.16,16.79,3.47,15.67-4.44,9.07-4.42,7.88-12.68.52-23.25,2.33-9.57-.68-18.46-11.49-26.38,7.07.02,11.66-3.92,12.54-13.84,4.75-7.09,5.92-13.95.26-20.37,1.91-3.54.24-5.81-2.87-7.58,7.29-2.99,10.07-10,9.67-19.85l15.41-3.4"/>
        <g>
          <g id="_Radial_Repeat_" data-name="&amp;lt;Radial Repeat&amp;gt;">
            <polygon class="cls-1" points="89.18 190.81 93.91 190.5 93.91 190.45 93.91 190.45 93.42 182.97 92.9 183 88.68 183.28 89.18 190.81"/>
          </g>
          <g id="_Radial_Repeat_-2" data-name="&amp;lt;Radial Repeat&amp;gt;">
            <polygon class="cls-1" points="84.77 185.79 88.34 188.92 88.38 188.88 88.38 188.88 93.32 183.25 92.93 182.91 92.93 182.91 89.75 180.12 84.77 185.79"/>
          </g>
          <g id="_Radial_Repeat_-3" data-name="&amp;lt;Radial Repeat&amp;gt;">
            <polygon class="cls-1" points="85.21 179.13 85.52 183.87 85.57 183.86 93.05 183.37 93.02 182.86 93.02 182.86 92.74 178.64 85.21 179.13"/>
          </g>
          <g id="_Radial_Repeat_-4" data-name="&amp;lt;Radial Repeat&amp;gt;">
            <polygon class="cls-1" points="90.23 174.73 87.1 178.3 87.14 178.33 87.14 178.33 92.77 183.27 93.11 182.89 93.11 182.89 95.9 179.7 90.23 174.73"/>
          </g>
          <g id="_Radial_Repeat_-5" data-name="&amp;lt;Radial Repeat&amp;gt;">
            <polygon class="cls-1" points="96.89 175.16 92.15 175.47 92.16 175.53 92.16 175.53 92.65 183.01 93.16 182.97 97.38 182.69 96.89 175.16"/>
          </g>
          <g id="_Radial_Repeat_-6" data-name="&amp;lt;Radial Repeat&amp;gt;">
            <polygon class="cls-1" points="101.29 180.18 97.72 177.05 97.69 177.09 97.69 177.09 92.75 182.73 93.14 183.07 93.14 183.07 96.32 185.86 101.29 180.18"/>
          </g>
          <g id="_Radial_Repeat_-7" data-name="&amp;lt;Radial Repeat&amp;gt;">
            <polygon class="cls-1" points="100.86 186.84 100.55 182.11 100.49 182.11 93.02 182.6 93.05 183.12 93.05 183.12 93.33 187.34 100.86 186.84"/>
          </g>
          <g id="_Radial_Repeat_-8" data-name="&amp;lt;Radial Repeat&amp;gt;">
            <polygon class="cls-1" points="95.84 191.25 98.97 187.68 98.93 187.64 98.93 187.64 93.29 182.7 92.95 183.09 92.95 183.09 90.16 186.27 95.84 191.25"/>
          </g>
        </g>
        <path class="cls-5" d="M133.01,78.27c23.33.36,40.77,8.74,49.76,28.6"/>
        <path class="cls-5" d="M204.8,84.56c12.49,19.71,15.04,38.89,3.35,57.3"/>
      </g>
      <path class="cls-6" d="M256.86,120.51c-2.74,160.69-241.77,160.67-244.49,0,2.74-160.69,241.77-160.66,244.49,0Z"/>
    </g>
  </g>
</svg>