<?xml version="1.0" encoding="UTF-8"?>
<svg id="Layer_2" data-name="Layer 2" xmlns="http://www.w3.org/2000/svg" viewBox="0 0 272.89 271.6">
  <defs>
    <style>
      .cls-1 {
        fill: #b8424c;
      }

      .cls-1, .cls-2, .cls-3, .cls-4 {
        stroke: #638962;
      }

      .cls-1, .cls-2, .cls-3, .cls-4, .cls-5 {
        stroke-miterlimit: 10;
      }

      .cls-1, .cls-3, .cls-4, .cls-5 {
        stroke-width: .3px;
      }

      .cls-2 {
        fill: #e7c79a;
        stroke-width: 4px;
      }

      .cls-3, .cls-5 {
        fill: #7dad7d;
      }

      .cls-4 {
        fill: #c6ae73;
      }

      .cls-5 {
        stroke: #fff;
      }
    </style>
  </defs>
  <g id="Layer_3" data-name="Layer 3">
    <g>
      <ellipse class="cls-2" cx="136.44" cy="135.8" rx="134.44" ry="133.8"/>
      <g>
        <path class="cls-4" d="M179.56,218.37c-6.66,5.64-12.88,8.24-16.81,9.53-19.25,6.3-37.08-1.52-44.93-4.96-6.92-3.04-12.13-6.48-15.41-8.88-3.2-3.88-5.59-7.4-7.31-10.19-3.2-5.18-4.81-7.77-5.12-9.35-.22-1.1-.54-3.38-1.76-3.72-.85-.24-6.52,1.11-8.01.8-5.46-1.15-9.67-13.93-5.49-21.68,1.93-3.57,4.18-4.44,4.18-4.44,1.18-.54,2.02-.52,2.59-1.29,1.12-1.52-.2-4.24-.59-5.09-1.22-2.71-2.37-7.37-1.74-15.82,0,0,0,0,0,0h0s0,0,0,0c-.05-.3-.13-.77-.22-1.35-.46-3.16-2.18-14.85,3.62-25.55,1.63-3.01,3.57-5.4,5.74-8.09,1.78-2.2,3.18-3.93,5.23-5.75,3.83-3.4,7.56-5.01,9.93-6.01,6.4-2.7,12.39-3.36,16.72-3.4,7.63,2.79,12.59,6.4,15.67,9.14,4.14,3.67,4.79,5.66,8.62,7.58,1.3.65,9.63,4.82,16.46.26,5.85-3.91,6.23-11.32,6.27-12.28,1.77,1.1,4.05,2.65,6.53,4.7,5.09,4.22,8.17,8.21,8.88,9.14.97,1.27,4.22,5.69,6.79,12.02,3.07,7.56,2.64,11.65,4.18,31.35,1.05,13.38,1.57,20.07,2.09,22.46,1.52,6.97,3.32,11.23,2.09,17.24-1.07,5.23-3.9,9.12-6.2,11.65,0,.81-.1,5.05-12,12Z"/>
        <polygon class="cls-1" points="83.58 185.3 78.36 205.28 95.99 204.63 83.58 185.3"/>
        <path class="cls-3" d="M164.32,112.96c-2.26.9-5.89,2.02-10.45,2.09-5.41.09-9.63-1.34-12.02-2.35-1.36-2.73-4.16-7.44-9.4-11.49-7.04-5.44-14.37-6.52-17.5-6.79-3.12.77-6.89,1.97-10.97,3.92-4.74,2.26-8.47,4.84-11.23,7.05-.43-3.28-.84-9.95,2.09-17.5,3.67-9.44,10.36-14.59,13.06-16.46,3.77-2.32,8.94-5.01,15.41-7.05,6.85-2.16,12.93-2.91,17.5-3.13,3.48-.45,10.22-.85,18.02,1.83,7.85,2.69,12.94,7.17,15.41,9.66-1.17,3.72-2.31,7.55-3.4,11.49-2.76,10.02-4.89,19.63-6.53,28.73Z"/>
        <path class="cls-5" d="M162.83,74.55c4.64,9.27,1.18,19.97-13.91,32.73"/>
      </g>
    </g>
  </g>
</svg>