<?xml version="1.0" encoding="UTF-8"?>
<svg id="Layer_2" data-name="Layer 2" xmlns="http://www.w3.org/2000/svg" viewBox="0 0 272.89 271.6">
  <defs>
    <style>
      .cls-1 {
        stroke-width: .3px;
      }

      .cls-1, .cls-2 {
        fill: #b8424c;
      }

      .cls-1, .cls-2, .cls-3, .cls-4, .cls-5 {
        stroke: #638962;
      }

      .cls-1, .cls-2, .cls-3, .cls-4, .cls-5, .cls-6 {
        stroke-miterlimit: 10;
      }

      .cls-2, .cls-4, .cls-5, .cls-6 {
        stroke-width: .3px;
      }

      .cls-3 {
        fill: #e7c79a;
        stroke-width: 4px;
      }

      .cls-4, .cls-6 {
        fill: #7dad7d;
      }

      .cls-5 {
        fill: #c6ae73;
      }

      .cls-6 {
        stroke: #fff;
      }
    </style>
  </defs>
  <g id="Layer_3" data-name="Layer 3">
    <g>
      <ellipse class="cls-3" cx="136.44" cy="135.8" rx="134.44" ry="133.8"/>
      <g>
        <g>
          <rect class="cls-5" x="95.29" y="117.04" width="106.78" height="113.63" rx="12" ry="12"/>
          <path class="cls-4" d="M99.27,214.45c19.7-24.99,30.53-52.38,29.26-83.07,14.32,16.75,41.18,23.93,73.92,26.64,6.9-25.36,2.25-47.59-22.99-64.26-24.58-10.51-47.99-13.33-69.1-1.16-.21.12-.43.25-.64.38,5.62-14.75-1.6-24.24-19.07-29.52-23.78,1.45-36.19,14.67-39.7,37.09-.55,13.09,4.13,22.16,14.56,26.81,1.17.52,2.41.99,3.72,1.4-9.87,12.95-13.24,28.64-10.19,47.02,1.43,24.13,16.6,35.36,40.23,38.66Z"/>
          <polygon class="cls-2" points="70.21 133.74 113.9 92.89 109.65 88.94 65.96 129.2 70.21 133.74"/>
          <g>
            <g id="_Radial_Repeat_" data-name="&amp;lt;Radial Repeat&amp;gt;">
              <polygon class="cls-1" points="57.17 143.18 66.13 142.59 66.12 142.49 66.12 142.49 65.19 128.35 64.22 128.41 64.22 128.41 56.24 128.94 57.17 143.18"/>
            </g>
            <g id="_Radial_Repeat_-2" data-name="&amp;lt;Radial Repeat&amp;gt;">
              <polygon class="cls-1" points="48.84 133.69 55.59 139.61 55.66 139.53 55.66 139.53 65 128.87 64.27 128.23 64.27 128.23 58.25 122.96 48.84 133.69"/>
            </g>
            <g id="_Radial_Repeat_-3" data-name="&amp;lt;Radial Repeat&amp;gt;">
              <polygon class="cls-1" points="49.66 121.09 50.25 130.05 50.36 130.04 50.36 130.04 64.5 129.11 64.43 128.14 64.43 128.14 63.91 120.15 49.66 121.09"/>
            </g>
            <g id="_Radial_Repeat_-4" data-name="&amp;lt;Radial Repeat&amp;gt;">
              <polygon class="cls-1" points="59.15 112.76 53.24 119.51 53.32 119.58 53.32 119.58 63.97 128.92 64.61 128.19 64.61 128.19 69.89 122.17 59.15 112.76"/>
            </g>
            <g id="_Radial_Repeat_-5" data-name="&amp;lt;Radial Repeat&amp;gt;">
              <polygon class="cls-1" points="71.75 113.58 62.8 114.17 62.8 114.28 62.8 114.28 63.73 128.42 64.71 128.35 64.71 128.35 72.69 127.83 71.75 113.58"/>
            </g>
            <g id="_Radial_Repeat_-6" data-name="&amp;lt;Radial Repeat&amp;gt;">
              <polygon class="cls-1" points="80.08 123.07 73.33 117.16 73.26 117.24 73.26 117.24 63.92 127.89 64.65 128.53 64.65 128.53 70.67 133.81 80.08 123.07"/>
            </g>
            <g id="_Radial_Repeat_-7" data-name="&amp;lt;Radial Repeat&amp;gt;">
              <polygon class="cls-1" points="79.26 135.67 78.67 126.72 78.57 126.73 78.57 126.73 64.43 127.65 64.49 128.63 64.49 128.63 65.02 136.61 79.26 135.67"/>
            </g>
            <g id="_Radial_Repeat_-8" data-name="&amp;lt;Radial Repeat&amp;gt;">
              <polygon class="cls-1" points="69.77 144 75.69 137.25 75.61 137.18 75.61 137.18 64.95 127.84 64.31 128.58 64.31 128.58 59.04 134.59 69.77 144"/>
            </g>
          </g>
        </g>
        <path class="cls-6" d="M122.52,94.82c45.8-.45,69.89,13.92,71.7,43.49"/>
        <path class="cls-6" d="M106.06,109.71c-12.93,57.07-28.53,60.45-36.83,49.37"/>
        <path class="cls-6" d="M112.72,123.03c7.57,31.88.14,56.75-22.73,74.45"/>
        <path class="cls-6" d="M102.53,81.5c-24.69-7.83-39.35-1.24-39.18,26.64"/>
        <path class="cls-6" d="M133.1,109.31c23.33.36,40.77,8.74,49.76,28.6"/>
      </g>
    </g>
  </g>
</svg>